<?xml version="1.0" encoding="UTF-8" standalone="no"?>
<svg
   xmlns:dc="http://purl.org/dc/elements/1.1/"
   xmlns:cc="http://creativecommons.org/ns#"
   xmlns:rdf="http://www.w3.org/1999/02/22-rdf-syntax-ns#"
   xmlns:svg="http://www.w3.org/2000/svg"
   xmlns="http://www.w3.org/2000/svg"
   width="7680"
   height="2160"
   viewBox="0 0 7680 2160"
   version="1.1"
   id="svg8">
  <defs
     id="defs2" />
  <metadata
     id="metadata5">
    <rdf:RDF>
      <cc:Work
         rdf:about="">
        <dc:format>image/svg+xml</dc:format>
        <dc:type
           rdf:resource="http://purl.org/dc/dcmitype/StillImage" />
        <dc:title></dc:title>
      </cc:Work>
    </rdf:RDF>
  </metadata>
  <g
     id="layer1">
    <rect
       style="opacity:1;fill:#000000;stroke:none;stroke-width:3.02134;stop-color:#000000"
       id="rect1303"
       width="3840"
       height="2160"
       x="3840"
       y="0" />
    <rect
       style="opacity:1;fill:#9c3652;stroke:none;stroke-width:0.865582;stop-color:#000000"
       id="rect1532"
       width="529.7489"
       height="461.88467"
       x="1958.0482"
       y="6458.7549"
       transform="matrix(0.15334919,0.98817206,0.98817206,-0.15334919,0,0)" />
    <rect
       style="opacity:1;fill:#46bc84;stroke:none;stroke-width:0.940008;stop-color:#000000"
       id="rect1498"
       width="440.86453"
       height="380.03809"
       x="-1878.5531"
       y="-6260.3203"
       transform="rotate(112.86991)" />
    <rect
       style="opacity:1;fill:#724ab7;stroke:none;stroke-width:0.959365;stop-color:#000000"
       id="rect1548"
       width="417.87082"
       height="174.55144"
       x="5088.4019"
       y="-3635.0598"
       transform="rotate(41.630217)" />
    <rect
       style="opacity:1;fill:#b3bb5b;stroke:none;stroke-width:0.940008;stop-color:#000000"
       id="rect1514"
       width="440.86453"
       height="380.03809"
       x="-756.84912"
       y="-7696.2993"
       transform="matrix(0.16937015,-0.98555251,-0.98555251,-0.16937015,0,0)" />
    <rect
       style="opacity:1;fill:#bca241;stroke:none;stroke-width:0.865582;stop-color:#000000"
       id="rect1510"
       width="529.7489"
       height="461.88467"
       x="-5358.8496"
       y="-2274.7383"
       transform="rotate(161.84382)" />
    <rect
       style="opacity:1;fill:#c2be67;stroke:none;stroke-width:0.865582;stop-color:#000000"
       id="rect1504"
       width="529.7489"
       height="461.88467"
       x="6040.4302"
       y="1763.2815"
       transform="rotate(-14.387412)" />
    <rect
       style="opacity:1;fill:#ac6636;stroke:none;stroke-width:0.940008;stop-color:#000000"
       id="rect1479"
       width="440.86453"
       height="380.03809"
       x="-1219.0396"
       y="5211.3589"
       transform="rotate(-82.10364)" />
    <rect
       style="opacity:1;fill:#3d6cbb;stroke:none;stroke-width:0.978012;stop-color:#000000"
       id="rect1467"
       width="441.84479"
       height="263.05847"
       x="4735.7891"
       y="-835.93188"
       transform="rotate(19.630465)" />
    <rect
       style="opacity:1;fill:#c35c62;stroke:none;stroke-width:0.89095;stop-color:#000000"
       id="rect1461"
       width="440.71228"
       height="341.52393"
       x="998.7876"
       y="4485.9067"
       transform="matrix(-0.05373609,0.99855517,0.99778344,0.06654475,0,0)" />
    <rect
       style="opacity:1;fill:#3640ab;stroke:none;stroke-width:0.920822;stop-color:#000000"
       id="rect1457"
       width="441.26636"
       height="421.92908"
       x="4172.0454"
       y="-5716.6284"
       transform="matrix(0.6665004,-0.74550467,-0.74550467,-0.6665004,0,0)" />
    <rect
       style="opacity:1;fill:#36cb80;stroke:none;stroke-width:0.938875;stop-color:#000000"
       id="rect1453"
       width="628.21271"
       height="273.04355"
       x="6330.8525"
       y="-2654.5081"
       transform="matrix(0.96446133,-0.26422403,-0.26422403,-0.96446133,0,0)" />
    <rect
       style="opacity:1;fill:#000000;stroke:none;stroke-width:3.02134;stop-color:#000000"
       id="rect1443"
       width="3840"
       height="2160"
       x="0"
       y="0" />
    <rect
       style="opacity:1;fill:#9c3652;stroke:none;stroke-width:0.865582;stop-color:#000000"
       id="rect925"
       width="529.7489"
       height="461.88467"
       x="1346.5812"
       y="2518.511"
       transform="matrix(0.15334919,0.98817206,0.98817206,-0.15334919,0,0)" />
    <rect
       style="opacity:1;fill:#c2be67;stroke:none;stroke-width:0.865582;stop-color:#000000"
       id="rect979"
       width="529.7489"
       height="461.88467"
       x="2280.8826"
       y="798.87427"
       transform="rotate(-14.387412)" />
    <rect
       style="opacity:1;fill:#3640ab;stroke:none;stroke-width:0.920822;stop-color:#000000"
       id="rect1455"
       width="441.26636"
       height="421.92908"
       x="1628.8762"
       y="-2871.9993"
       transform="matrix(0.6665004,-0.74550467,-0.74550467,-0.6665004,0,0)" />
    <rect
       style="opacity:1;fill:#bca241;stroke:none;stroke-width:0.865582;stop-color:#000000"
       id="rect873"
       width="529.7489"
       height="461.88467"
       x="-1589.6462"
       y="-1038.6815"
       transform="rotate(161.84382)" />
    <rect
       style="opacity:1;fill:#b3bb5b;stroke:none;stroke-width:0.940008;stop-color:#000000"
       id="rect1009-7"
       width="440.86453"
       height="380.03809"
       x="-1425.9863"
       y="-3802.6389"
       transform="matrix(0.16937015,-0.98555251,-0.98555251,-0.16937015,0,0)" />
    <rect
       style="opacity:1;fill:#576cc4;stroke:none;stroke-width:0.999999;stop-color:#000000"
       id="rect879"
       width="146.98611"
       height="394.61111"
       x="3181.4773"
       y="-216.10522"
       transform="rotate(34.243407)" />
    <rect
       style="opacity:1;fill:#46bc84;stroke:none;stroke-width:0.940008;stop-color:#000000"
       id="rect883"
       width="440.86453"
       height="380.03809"
       x="-344.56519"
       y="-2623.5352"
       transform="rotate(112.86991)" />
    <rect
       style="opacity:1;fill:#3d6cbb;stroke:none;stroke-width:0.978012;stop-color:#000000"
       id="rect885"
       width="441.84479"
       height="263.05847"
       x="1071.1609"
       y="471.17877"
       transform="rotate(19.630465)" />
    <rect
       style="opacity:1;fill:#724ab7;stroke:none;stroke-width:0.959365;stop-color:#000000"
       id="rect887"
       width="417.87082"
       height="174.55144"
       x="2242.8511"
       y="-1105.9763"
       transform="rotate(41.630217)" />
    <rect
       style="opacity:1;fill:#6a3bbc;stroke:none;stroke-width:0.938875;stop-color:#000000"
       id="rect891"
       width="628.21271"
       height="273.04355"
       x="2770.7856"
       y="-1478.7618"
       transform="rotate(52.173238)" />
    <rect
       style="opacity:1;fill:#94da5f;stroke:none;stroke-width:0.920822;stop-color:#000000"
       id="rect927"
       width="441.26636"
       height="421.92908"
       x="-118.68932"
       y="1437.8224"
       transform="matrix(-0.16703141,0.98595157,0.98595157,0.16703141,0,0)" />
    <rect
       style="opacity:1;fill:#3b8ab0;stroke:none;stroke-width:0.999999;stop-color:#000000"
       id="rect929"
       width="455.76389"
       height="319.38889"
       x="-2325.4175"
       y="178.69603"
       transform="matrix(-0.99496367,-0.10023618,-0.10023618,0.99496367,0,0)" />
    <rect
       style="opacity:1;fill:#c35c62;stroke:none;stroke-width:0.940008;stop-color:#000000"
       id="rect935"
       width="440.86453"
       height="380.03809"
       x="1265.1061"
       y="552.10663"
       transform="matrix(-0.05980091,0.99821032,0.99821032,0.05980091,0,0)" />
    <rect
       style="opacity:1;fill:#4036ad;stroke:none;stroke-width:0.978012;stop-color:#000000"
       id="rect937"
       width="441.84479"
       height="263.05847"
       x="-2801.9329"
       y="1683.1162"
       transform="matrix(-0.9973162,0.0732147,0.0732147,0.9973162,0,0)" />
    <rect
       style="opacity:1;fill:#6ac7bb;stroke:none;stroke-width:0.975274;stop-color:#000000"
       id="rect977"
       width="337.51309"
       height="299.28769"
       x="-3249.3154"
       y="-192.34059"
       transform="rotate(-143.33062)" />
    <rect
       style="opacity:1;fill:#9959c7;stroke:none;stroke-width:0.920822;stop-color:#000000"
       id="rect981"
       width="441.26636"
       height="421.92908"
       x="-1495.2454"
       y="280.01096"
       transform="rotate(-86.777858)" />
    <rect
       style="opacity:1;fill:#2e7a93;stroke:none;stroke-width:0.999999;stop-color:#000000"
       id="rect985"
       width="146.98611"
       height="394.61111"
       x="-2995.2495"
       y="-576.22095"
       transform="rotate(-146.07243)" />
    <rect
       style="opacity:1;fill:#5cc86c;stroke:none;stroke-width:0.883617;stop-color:#000000"
       id="rect987"
       width="532.34314"
       height="348.96783"
       x="-1562.4867"
       y="1869.2318"
       transform="rotate(-91.958021)" />
    <rect
       style="opacity:1;fill:#ac6636;stroke:none;stroke-width:0.940008;stop-color:#000000"
       id="rect989"
       width="440.86453"
       height="380.03809"
       x="-1754.2585"
       y="1352.4434"
       transform="rotate(-82.10364)" />
    <path
       style="opacity:1;fill:#4eaf59;stroke:none;stroke-width:0.999999;stop-color:#000000"
       id="path1161"
       d="m 1563.6992,128.17968 c -2.5553,4.6351 -4.8606,9.4169 -7.6657,13.9052 -12.6414,20.2266 -28.2753,41.7569 -42.2281,60.7439 -24.0975,32.792 -46.9887,62.899 -72.3521,94.9042 -12.9171,16.2997 -26.1713,32.3292 -39.2569,48.4938 -26.2535,30.9152 -41.9828,50.6799 -69.7852,79.0533 -7.3524,7.5034 -30.6845,33.6937 -46.6911,35.2264 -9.8217,0.9405 -16.7549,-21.5252 -18.0663,-24.3384 -15.1977,-54.4441 -16.2864,-111.396 -21.7545,-167.3068 -4.1821,-42.7621 -4.618,-42.5205 -10.5703,-82.9653 -3.8353,-9.5628 -4.6288,-21.0162 -11.5057,-28.6885 -6.0184,-6.7145 -15.4842,-11.1584 -24.4956,-11.4769 -27.1845,-0.961 -52.8967,24.4542 -69.4679,40.3323 -19.1198,18.3201 -70.4099,77.3815 -87.3941,96.651 -38.7863,43.0756 -74.475,89.6371 -118.4253,127.8258 -8.215,7.1381 -30.2499,28.9963 -47.1446,24.0833 -4.7029,-1.3677 -6.3402,-7.4668 -9.5103,-11.2002 -12.0805,-29.08 -16.0761,-60.6806 -20.9858,-91.537 -1.9931,-12.5256 -3.2132,-25.1824 -5.6862,-37.6221 -2.3357,-11.749 -4.1183,-23.8037 -8.7236,-34.8621 -4.2992,-10.3232 -11.7807,-19.011 -17.6711,-28.5165 -8.2261,-6.4542 -14.8113,-15.9032 -24.6782,-19.3626 -31.6346,-11.0911 -62.0591,2.2624 -90.8844,13.5606 -18.9682,7.4347 -37.3951,16.2459 -55.5524,25.4861 -21.718,11.0523 -42.6053,23.6669 -63.9909,35.3493 -23.1025,12.6204 -46.3148,25.039 -69.4722,37.5585 -22.7731,11.0921 -45.5463,22.1842 -68.3194,33.2763 0,0 -32.9292,119.63 -32.9292,119.63 v 0 c 22.93,-11.2973 45.86,-22.5946 68.7901,-33.8918 20.9952,-10.4545 106.284,-53.2256 130.0892,-63.9671 17.2681,-7.7917 34.5775,-15.6562 52.5502,-21.646 20.2867,-6.7608 51.7964,-16.3719 74.6047,-7.7382 8.0675,3.0539 13.5165,10.7214 20.2748,16.0821 4.841,8.3235 11.0103,16.0051 14.5229,24.9704 4.1352,10.5542 5.9447,21.8944 8.1919,33.0048 4.3096,21.3061 8.1719,55.6385 11.9996,76.7377 2.2075,12.1683 3.9046,24.5296 7.7608,36.2799 3.288,10.019 9.0198,19.0633 13.5297,28.5949 7.6568,4.756 14.0191,13.2093 22.9703,14.2679 21.8875,2.5885 46.6136,-24.0163 58.3291,-35.2862 43.5352,-41.8795 80.1272,-90.2729 120.7949,-134.7754 28.9381,-32.0061 50.8377,-58.0415 82.6995,-86.7001 9.7246,-8.7468 19.8938,-17.0993 30.8329,-24.2694 6.4657,-4.2379 25.7414,-16.1015 35.3109,-5.931 5.7815,6.1445 6.9105,15.3937 10.3658,23.0905 7.0267,37.3769 7.7233,37.2562 11.9753,77.594 3.3665,31.9375 5.1906,64.0217 8.3092,95.9843 1.549,15.875 2.5534,31.8362 5.1596,47.5722 2.1038,12.7019 5.962,25.0502 8.9429,37.5753 9.9881,14.5755 16.7273,34.7535 40.2867,31.0364 18.2912,-2.8859 45.5513,-36.1851 54.306,-45.9005 24.7183,-27.4308 48.2821,-56.5572 71.8053,-84.9673 13.0886,-16.0845 26.0811,-32.2477 39.2658,-48.2535 35.9913,-43.6924 36.1611,-42.9833 70.1729,-83.8752 7.9134,-9.5143 15.6105,-19.2077 23.5657,-28.687 12.5539,-14.959 13.7571,-16.0819 24.3321,-27.5375 0,0 33.4683,-157.5678 33.4683,-157.5678 z" />
    <rect
       style="opacity:1;fill:#4c38ce;stroke:none;stroke-width:0.938875;stop-color:#000000"
       id="rect993"
       width="628.21271"
       height="273.04355"
       x="-1738.7878"
       y="1155.4819"
       transform="rotate(-110.5817)" />
    <rect
       style="opacity:1;fill:#93275b;stroke:none;stroke-width:0.999804;stop-color:#000000"
       id="rect995"
       width="222.02614"
       height="501.42996"
       x="-2105.5845"
       y="191.29175"
       transform="rotate(-148.14594)" />
    <rect
       style="opacity:1;fill:#9a427d;stroke:none;stroke-width:0.975274;stop-color:#000000"
       id="rect999"
       width="337.51309"
       height="299.28769"
       x="1005.6162"
       y="-1504.9805"
       transform="matrix(0.99345677,-0.11420876,-0.11420876,-0.99345677,0,0)" />
    <path
       style="opacity:1;fill:#49ca61;stroke:none;stroke-width:0.999999;stop-color:#000000"
       id="path1133"
       d="m 2315.6483,1595.4731 c -51.6903,36.8066 -108.3778,66.5009 -166.9856,90.691 -47.9243,19.7805 -92.2908,36.0685 -144.2412,41.462 -21.1384,2.1945 -42.5015,-0.468 -63.7522,-0.702 -16.0355,-7.6005 -34.3299,-11.6162 -48.1065,-22.8015 -26.2112,-21.2809 -42.446,-62.4932 -51.7032,-93.0515 -8.9721,-29.6172 -11.9329,-73.4086 -26.8022,-101.7801 -6.7482,-12.8756 -18.5138,-22.4169 -27.7706,-33.6254 -17.5038,-1.0166 -35.263,-6.1978 -52.5114,-3.0497 -22.8779,4.1755 -44.0586,15.0949 -65.3044,24.5528 -42.0412,18.7156 -84.4804,44.9158 -124.52,67.5136 -15.9898,9.0244 -31.7319,18.5379 -48.1827,26.6916 -10.9435,5.4242 -22.5808,9.3188 -33.8711,13.9781 -4.9165,-1.559 -11.3166,-0.8276 -14.7496,-4.6769 -3.2899,-3.6889 -1.8139,-9.7226 -2.4626,-14.6227 -1.0318,-7.7936 -1.1212,-15.7181 -2.5767,-23.4438 -1.8683,-9.9167 -1.8155,-20.9386 -7.3719,-29.3623 -22.6791,-34.3824 -47.821,-30.9326 -86.0965,-40.1483 -23.2043,-2.1483 -46.3551,-4.9845 -69.6129,-6.4449 -26.7962,-1.6827 -53.6682,-1.8134 -80.4918,-2.9807 -89.1476,-3.8798 -71.8612,-3.2525 -157.3616,-10.1257 0,0 -39.1657,118.2375 -39.1657,118.2375 v 0 c 68.6723,2.3568 88.018,2.1751 157.8421,8.1656 25.9996,2.2307 52.0252,4.4732 77.8596,8.1531 21.8803,3.1166 43.4451,8.1465 65.1677,12.2197 31.329,13.1433 52.9774,13.5975 67.8903,45.3566 8.6183,18.3538 3.0183,41.343 11.6026,59.7127 3.7226,7.9658 8.7916,16.863 16.9067,20.2477 7.7365,3.2268 16.6627,-1.8477 24.9941,-2.7715 12.3711,-7.3846 24.9158,-14.4857 37.1132,-22.1537 41.4229,-26.0408 64.4515,-43.9702 108.3547,-67.9924 34.8252,-19.055 79.8807,-41.8698 120.3161,-48.0695 13.4461,-2.0616 27.1677,1.4533 40.7516,2.18 8.198,9.064 18.6745,16.5 24.594,27.1922 13.428,24.2546 20.795,74.4116 29.3153,98.8883 11.6728,33.5331 30.3371,76.0241 61.2851,97.4181 15.9912,11.0546 36.5596,13.232 54.8394,19.848 22.4602,-0.9371 45.0898,0.097 67.3807,-2.8113 52.6858,-6.873 96.9398,-21.8437 146.5215,-40.1972 22.5384,-8.343 44.4761,-18.23 66.8226,-27.074 45.7425,-18.1034 53.4384,-20.6567 94.1754,-35.4934 0,0 39.9077,-149.1301 39.9077,-149.1301 z" />
    <rect
       style="opacity:1;fill:#658bc8;stroke:none;stroke-width:0.959365;stop-color:#000000"
       id="rect1011"
       width="417.87082"
       height="174.55144"
       x="1151.972"
       y="-739.24347"
       transform="matrix(0.98116078,-0.19319298,-0.19319298,-0.98116078,0,0)" />
    <rect
       style="opacity:1;fill:#36cb80;stroke:none;stroke-width:0.938875;stop-color:#000000"
       id="rect1015"
       width="628.21271"
       height="273.04355"
       x="2567.4109"
       y="-1623.4716"
       transform="matrix(0.96446133,-0.26422403,-0.26422403,-0.96446133,0,0)" />
    <rect
       style="opacity:1;fill:#c53ea3;stroke:none;stroke-width:0.975274;stop-color:#000000"
       id="rect923"
       width="337.51309"
       height="299.28769"
       x="-3264.0723"
       y="1117.6217"
       transform="matrix(-0.96988133,0.24357792,0.24357792,0.96988133,0,0)" />
    <rect
       style="opacity:1;fill:#2aaeb6;stroke:none;stroke-width:0.999804;stop-color:#000000"
       id="rect1017"
       width="222.02614"
       height="501.42996"
       x="2099.3408"
       y="-1199.6667"
       transform="matrix(0.97109847,0.2386792,0.2386792,-0.97109847,0,0)" />
    <rect
       style="opacity:1;fill:#50c441;stroke:none;stroke-width:0.999999;stop-color:#000000"
       id="rect1019"
       width="284.93054"
       height="167.27777"
       x="-219.74258"
       y="-1197.7467"
       transform="matrix(0.90695307,-0.42123167,-0.42123167,-0.90695307,0,0)" />
    <path
       style="opacity:1;fill:#a0b244;stroke:none;stroke-width:0.999999;stop-color:#000000"
       id="path1129"
       d="m 2944.8625,2070.842 c 60.0309,-129.168 133.5784,-251.7651 213.2484,-369.6931 22.41,-33.1712 45.9276,-65.5805 68.8914,-98.3708 22.5971,-30.5873 45.1942,-61.1745 67.7913,-91.7618 0,0 22.8187,-101.8644 22.8187,-101.8644 v 0 c -22.8385,31.3475 -45.677,62.6951 -68.5154,94.0427 -40.0868,56.8537 -95.6193,134.9378 -134.6441,192.9167 -50.5389,75.0856 -50.599,77.2848 -94.0258,148.7785 -26.4773,43.5897 -22.9104,37.7151 -43.3377,70.7962 0,0 -32.2268,155.156 -32.2268,155.156 z" />
    <rect
       style="opacity:1;fill:#b33c79;stroke:none;stroke-width:0.920822;stop-color:#000000"
       id="rect875"
       width="441.26636"
       height="421.92908"
       x="-196.61877"
       y="-3717.0073"
       transform="rotate(107.79109)" />
    <rect
       style="opacity:1;fill:#3d8d60;stroke:none;stroke-width:0.999804;stop-color:#000000"
       id="rect945"
       width="222.02614"
       height="501.42996"
       x="-3217.0918"
       y="-611.31055"
       transform="matrix(-0.94026781,-0.34043566,-0.34043566,0.94026781,0,0)" />
    <path
       style="opacity:1;fill:#c972ad;stroke:none;stroke-width:0.999999;stop-color:#000000"
       id="path1151"
       d="m 2314.33,455.34469 c 60.1045,-20.3482 122.9446,-32.4457 186.0371,-38.7192 51.5916,-5.1298 98.77,-7.9406 150.0704,1.8664 20.8742,3.9905 40.5636,12.6967 60.8451,19.045 13.1648,11.8996 29.5257,21.0173 39.4944,35.6981 18.966,27.9318 22.635,72.0744 22.6926,104.0041 0.056,30.9463 -9.7291,73.7329 -3.6671,105.1857 2.7513,14.2742 11.268,26.8014 16.9018,40.2021 16.4681,6.018 31.9807,16.0975 49.4046,18.0538 23.1105,2.5948 46.5395,-1.7571 69.6096,-4.691 45.6513,-5.8054 93.8405,-18.6633 138.694,-28.7632 17.9119,-4.0335 35.7279,-8.6066 53.8307,-11.6733 12.0421,-2.0401 24.3082,-2.4158 36.4621,-3.6237 4.2588,2.9098 10.5982,4.054 12.7761,8.7293 2.0874,4.4804 -1.065,9.8328 -1.8557,14.7122 -1.2581,7.7601 -3.4557,15.3742 -4.289,23.1914 -1.0689,10.0343 -4.2958,20.5735 -1.4028,30.241 11.8081,39.4597 36.8776,43.4018 70.873,63.2574 21.6008,8.7445 42.9519,18.1322 64.8022,26.2334 25.1743,9.3338 50.8685,17.2031 76.2176,26.0514 84.2471,29.4069 67.875,23.8243 147.767,55.0462 0,0 71.5791,-101.9333 71.5791,-101.9333 v 0 c -65.0794,-22.0478 -83.6566,-27.4491 -148.7918,-53.308 -24.2537,-9.629 -48.5289,-19.2768 -72.2067,-30.2458 -20.0537,-9.2901 -39.254,-20.3214 -58.8812,-30.4821 -26.212,-21.6144 -46.8109,-28.2883 -51.9383,-62.9977 -2.9633,-20.0589 9.0243,-40.4587 6.0983,-60.5229 -1.269,-8.7008 -3.5588,-18.6814 -10.3542,-24.2611 -6.4782,-5.3196 -16.4882,-3.0327 -24.7323,-4.5493 -13.9744,3.5061 -28.0333,6.6906 -41.9231,10.5181 -47.1703,12.9982 -74.3889,23.5301 -123.3524,33.8806 -38.8392,8.2102 -88.5581,17.0723 -129.0646,11.3559 -13.4698,-1.9011 -25.5962,-9.2213 -38.3945,-13.8319 -5.2379,-11.0422 -13.1269,-21.1816 -15.7138,-33.1263 -5.8684,-27.0956 1.532,-77.2474 0.4275,-103.1411 -1.5137,-35.4744 -7.1405,-81.5415 -30.6101,-110.9468 -12.1268,-15.1941 -31.195,-23.2068 -46.7926,-34.8104 -21.7772,-5.5753 -43.1488,-13.0873 -65.332,-16.7265 -52.4312,-8.602 -99.122,-7.0204 -151.8895,-3.7349 -23.9864,1.4939 -47.8428,4.6391 -71.79,6.6676 -49.019,4.1529 -57.1242,4.3799 -100.4088,6.8471 0,0 -81.1925,131.3017 -81.1925,131.3017 z" />
    <path
       style="opacity:1;fill:#35882d;stroke:none;stroke-width:0.999999;stop-color:#000000"
       id="path1137"
       d="m 729.8523,352.74979 c -6.1364,47.8593 -12.192,95.9518 -15.4909,144.0902 -2.7525,40.1643 -4.4163,80.399 -5.988,120.6267 -1.8227,46.6517 -4.6137,93.3137 -4.1946,139.9991 0.4719,52.5736 4.5773,105.0516 6.866,157.5774 15.2516,166.98661 34.4387,333.63691 59.0283,499.51631 16.3429,110.248 26.6328,165.0105 45.4682,272.3163 0,0 43.5106,-89.7163 43.5106,-89.7163 v 0 c -8.8133,-39.1555 -18.3473,-78.1558 -26.4398,-117.4666 -21.3635,-103.7761 -35.5087,-188.5365 -50.3012,-294.1734 -24.6668,-176.1521 -20.6818,-161.6628 -34.7665,-342.60031 -0.6751,-55.2557 -3.0157,-110.5161 -2.0252,-165.7671 2.7927,-155.7775 21.6273,-311.6309 59.0164,-462.915 0,0 -74.6833,138.5127 -74.6833,138.5127 z" />
    <path
       style="opacity:1;fill:#c39b50;stroke:none;stroke-width:0.999999;stop-color:#000000"
       id="path1143"
       d="m 164.1844,2053.9693 c 2.5553,-4.6351 4.8606,-9.4169 7.6657,-13.9052 12.6414,-20.2266 28.2753,-41.7569 42.2281,-60.7439 24.0975,-32.792 46.9887,-62.899 72.3521,-94.9042 12.9171,-16.2997 26.1713,-32.3292 39.2569,-48.4938 26.2535,-30.9152 41.9828,-50.6799 69.7852,-79.0533 7.3524,-7.5034 30.6845,-33.6937 46.6911,-35.2264 9.8217,-0.9405 16.7549,21.5252 18.0663,24.3384 15.1977,54.4441 16.2864,111.396 21.7545,167.3068 4.1821,42.7621 4.618,42.5205 10.5703,82.9653 3.8353,9.5628 4.6288,21.0162 11.5057,28.6885 6.0184,6.7145 15.4842,11.1584 24.4956,11.4769 27.1845,0.961 52.8967,-24.4542 69.4679,-40.3323 19.1198,-18.3201 70.4099,-77.3815 87.3941,-96.651 38.7863,-43.0756 74.475,-89.6371 118.4253,-127.8258 8.215,-7.1381 30.2499,-28.9963 47.1446,-24.0833 4.7029,1.3677 6.3402,7.4668 9.5103,11.2002 12.0805,29.08 16.0761,60.6806 20.9858,91.537 1.9931,12.5256 3.2132,25.1824 5.6862,37.6221 2.3357,11.749 4.1183,23.8037 8.7236,34.8621 4.2992,10.3232 11.7807,19.011 17.6711,28.5165 8.2261,6.4542 14.8113,15.9032 24.6782,19.3626 31.6346,11.0911 62.0591,-2.2624 90.8844,-13.5606 18.9682,-7.4347 37.3951,-16.2459 55.5524,-25.4861 21.718,-11.0523 42.6053,-23.6669 63.9909,-35.3493 23.1025,-12.6204 46.3148,-25.039 69.4722,-37.5585 22.7731,-11.0921 45.5463,-22.1842 68.3194,-33.2763 0,0 32.9292,-119.63 32.9292,-119.63 v 0 c -22.93,11.2973 -45.86,22.5946 -68.7901,33.8918 -20.9952,10.4545 -106.284,53.2256 -130.0892,63.9671 -17.2681,7.7917 -34.5775,15.6562 -52.5502,21.646 -20.2867,6.7608 -51.7964,16.3719 -74.6047,7.7382 -8.0675,-3.0539 -13.5165,-10.7214 -20.2748,-16.0821 -4.841,-8.3235 -11.0103,-16.0051 -14.5229,-24.9704 -4.1352,-10.5542 -5.9447,-21.8944 -8.1919,-33.0048 -4.3096,-21.3061 -8.1719,-55.6385 -11.9996,-76.7377 -2.2075,-12.1683 -3.9046,-24.5296 -7.7608,-36.2799 -3.288,-10.019 -9.0198,-19.0633 -13.5297,-28.5949 -7.6568,-4.756 -14.0191,-13.2093 -22.9703,-14.2679 -21.8875,-2.5885 -46.6136,24.0163 -58.3291,35.2862 -43.5352,41.8795 -80.1272,90.2729 -120.7949,134.7754 -28.9381,32.0061 -50.8377,58.0415 -82.6995,86.7001 -9.7246,8.7468 -19.8938,17.0993 -30.8329,24.2694 -6.4657,4.2379 -25.7414,16.1015 -35.3109,5.931 -5.7815,-6.1445 -6.9105,-15.3937 -10.3658,-23.0905 -7.0267,-37.3769 -7.7233,-37.2562 -11.9753,-77.594 -3.3665,-31.9375 -5.1906,-64.0217 -8.3092,-95.9843 -1.549,-15.875 -2.5534,-31.8362 -5.1596,-47.5722 -2.1038,-12.7019 -5.962,-25.0502 -8.9429,-37.5753 -9.9881,-14.5755 -16.7273,-34.7534 -40.2867,-31.0363 -18.2912,2.8859 -45.5513,36.185 -54.306,45.9004 -24.7183,27.4308 -48.2821,56.5572 -71.8053,84.9673 -13.0886,16.0845 -26.0811,32.2477 -39.2658,48.2535 -35.9913,43.6924 -36.1611,42.9833 -70.1729,83.8752 -7.9134,9.5143 -15.6105,19.2077 -23.5657,28.687 -12.5539,14.959 -13.7571,16.0819 -24.3321,27.5375 0,0 -33.4683,157.5678 -33.4683,157.5678 z" />
    <path
       style="opacity:1;fill:#6eb23b;stroke:none;stroke-width:0.999999;stop-color:#000000"
       id="path1153"
       d="m 2384.0467,154.94359 c -7.2559,1.6816 -14.4143,3.86 -21.7676,5.0449 -34.8071,5.6089 -66.9791,7.3192 -102.7018,7.1406 -25.4412,-0.1271 -50.8522,-1.7926 -76.2688,-2.9187 -31.3569,-1.3892 -62.6994,-3.0847 -94.0492,-4.627 -37.0339,-1.5965 -74.0678,-3.193 -111.1017,-4.7894 -146.1283,-10.1034 -74.5434,-4.487 -214.7668,-16.6967 0,0 -34.7429,104.5083 -34.7429,104.5083 v 0 c 141.4404,6.951 69.5621,2.4505 215.6219,13.7045 36.0761,4.2838 72.2016,8.1705 108.2283,12.8514 30.5046,3.9633 60.8812,8.8593 91.3513,13.0795 24.7796,3.4321 49.6131,6.4661 74.3957,9.8769 28.5332,3.9269 68.4225,10.6193 98.7453,12.876 6.8836,0.5123 13.8048,0.1113 20.7072,0.167 0,0 46.3491,-150.2173 46.3491,-150.2173 z" />
    <path
       style="opacity:1;fill:#c7b26f;stroke:none;stroke-width:0.999999;stop-color:#000000"
       id="path1155"
       d="m 3074.8101,1771.4262 c 6.1372,-47.8591 12.1936,-95.9514 15.4933,-144.0898 2.7531,-40.1642 4.4177,-80.399 5.99,-120.6267 1.8235,-46.6517 4.6153,-93.3134 4.197,-139.9988 -0.4709,-52.5736 -4.5755,-105.0519 -6.8632,-157.5777 -15.2488,-166.9868 -34.4328,-333.63741 -59.0196,-499.51721 -16.3411,-110.2483 -26.63,-165.011 -45.4636,-272.3172 0,0 -43.512,89.7155 -43.512,89.7155 v 0 c 8.8125,39.1558 18.3459,78.1563 26.4378,117.4671 21.3617,103.7766 35.5053,188.5373 50.296,294.17441 24.6638,176.1526 20.679,161.6633 34.7607,342.6008 0.6741,55.2558 3.0137,110.5162 2.0222,165.7671 -2.7953,155.7777 -21.6325,311.6305 -59.0242,462.9141 0,0 74.6856,-138.5116 74.6856,-138.5116 z" />
    <rect
       style="opacity:1;fill:#5cc86c;stroke:none;stroke-width:0.883617;stop-color:#000000"
       id="rect1469"
       width="532.34314"
       height="348.96783"
       x="-1695.6166"
       y="5763.3711"
       transform="rotate(-91.958021)" />
    <rect
       style="opacity:1;fill:#6a3bbc;stroke:none;stroke-width:0.938875;stop-color:#000000"
       id="rect1516"
       width="628.21271"
       height="273.04355"
       x="5181.4131"
       y="-4583.5283"
       transform="rotate(52.173238)" />
    <rect
       style="opacity:1;fill:#94da5f;stroke:none;stroke-width:0.920822;stop-color:#000000"
       id="rect1512"
       width="441.26636"
       height="421.92908"
       x="-774.57178"
       y="5309.3608"
       transform="matrix(-0.16703141,0.98595157,0.98595157,0.16703141,0,0)" />
    <path
       style="opacity:1;fill:#4eaf59;stroke:none;stroke-width:0.996195;stop-color:#000000"
       id="path1475"
       d="m 5462.2374,128.17968 c -2.5359,4.6351 -4.8237,9.4169 -7.6075,13.9052 -12.5454,20.2266 -28.0606,41.7569 -41.9074,60.7439 -23.9145,32.792 -46.6319,62.899 -71.8027,94.9042 -12.819,16.2997 -25.9725,32.3292 -38.9588,48.4938 -26.0541,30.9152 -41.6639,50.6799 -69.2552,79.0533 -7.2966,7.5034 -30.4515,33.6937 -46.3366,35.2264 -9.7471,0.9405 -16.6276,-21.5252 -17.9291,-24.3384 -15.0823,-54.4441 -16.1627,-111.396 -21.5893,-167.3068 -4.1503,-42.7621 -4.5829,-42.5205 -10.49,-82.9653 -3.8062,-9.5628 -4.5936,-21.0162 -11.4183,-28.6885 -5.9727,-6.7145 -15.3666,-11.1584 -24.3096,-11.4769 -26.9781,-0.961 -52.495,24.4542 -68.9404,40.3323 -18.9746,18.3201 -69.8752,77.3815 -86.7304,96.651 -38.4918,43.0756 -73.9095,89.6371 -117.526,127.8258 -8.1526,7.1381 -30.0202,28.9963 -46.7866,24.0833 -4.6672,-1.3677 -6.292,-7.4668 -9.4381,-11.2002 -11.9887,-29.08 -15.954,-60.6806 -20.8264,-91.537 -1.978,-12.5256 -3.1888,-25.1824 -5.643,-37.6221 -2.318,-11.749 -4.0871,-23.8037 -8.6574,-34.8621 -4.2665,-10.3232 -11.6912,-19.011 -17.5369,-28.5165 -8.1636,-6.4542 -14.6988,-15.9032 -24.4908,-19.3626 -31.3944,-11.0911 -61.5878,2.2624 -90.1942,13.5606 -18.8242,7.4347 -37.1112,16.2459 -55.1306,25.4861 -21.553,11.0523 -42.2817,23.6669 -63.5049,35.3493 -22.9271,12.6204 -45.9631,25.039 -68.9447,37.5585 -22.6001,11.0921 -45.2004,22.1842 -67.8006,33.2763 0,0 -32.6791,119.63 -32.6791,119.63 v 0 c 22.7559,-11.2973 45.5117,-22.5946 68.2677,-33.8918 20.8358,-10.4545 105.4769,-53.2256 129.1013,-63.9671 17.137,-7.7917 34.315,-15.6562 52.1512,-21.646 20.1326,-6.7608 51.403,-16.3719 74.0381,-7.7382 8.0063,3.0539 13.4139,10.7214 20.1209,16.0821 4.8042,8.3235 10.9267,16.0051 14.4126,24.9704 4.1038,10.5542 5.8995,21.8944 8.1297,33.0048 4.2769,21.3061 8.1098,55.6385 11.9085,76.7377 2.1907,12.1683 3.8749,24.5296 7.7018,36.2799 3.2631,10.019 8.9513,19.0633 13.427,28.5949 7.5986,4.756 13.9126,13.2093 22.7958,14.2679 21.7213,2.5885 46.2597,-24.0163 57.8862,-35.2862 43.2046,-41.8795 79.5187,-90.2729 119.8776,-134.7754 28.7184,-32.0061 50.4516,-58.0415 82.0715,-86.7001 9.6507,-8.7468 19.7427,-17.0993 30.5988,-24.2694 6.4166,-4.2379 25.5459,-16.1015 35.0427,-5.931 5.7376,6.1445 6.858,15.3937 10.2871,23.0905 6.9733,37.3769 7.6646,37.2562 11.8844,77.594 3.3409,31.9375 5.1511,64.0217 8.2461,95.9843 1.5372,15.875 2.534,31.8362 5.1204,47.5722 2.0878,12.7019 5.9167,25.0502 8.875,37.5753 9.9122,14.5755 16.6002,34.7535 39.9807,31.0364 18.1523,-2.8859 45.2054,-36.1851 53.8936,-45.9005 24.5306,-27.4308 47.9155,-56.5572 71.2601,-84.9673 12.9892,-16.0845 25.883,-32.2477 38.9676,-48.2535 35.718,-43.6924 35.8865,-42.9833 69.64,-83.8752 7.8533,-9.5143 15.4919,-19.2077 23.3867,-28.687 12.4586,-14.959 13.6527,-16.0819 24.1474,-27.5375 0,0 33.2141,-157.5678 33.2141,-157.5678 z" />
    <path
       style="opacity:1;fill:#35882d;stroke:none;stroke-width:0.999999;stop-color:#000000"
       id="path1463"
       d="m 4606.9137,352.74979 c -7.5266,47.8593 -14.9792,95.9518 -19.6764,144.0902 -3.9192,40.1643 -6.7517,80.399 -9.492,120.6267 -3.1778,46.6517 -7.3242,93.3137 -8.2613,139.9991 -1.0552,52.5736 1.5258,105.0516 2.2887,157.5774 10.401,166.98661 24.7472,333.63691 44.5184,499.51631 13.1404,110.248 21.8395,165.0105 37.5579,272.3163 0,0 46.1167,-89.7163 46.1167,-89.7163 v 0 c -7.6759,-39.1555 -16.077,-78.1558 -23.0276,-117.4666 -18.349,-103.7761 -30.0321,-188.5365 -41.7561,-294.1734 -19.5499,-176.1521 -15.9858,-161.6628 -24.8146,-342.60031 0.9299,-55.2557 0.1946,-110.5161 2.79,-165.7671 7.3177,-155.7775 30.6795,-311.6309 72.4631,-462.915 0,0 -78.7068,138.5127 -78.7068,138.5127 z" />
    <path
       style="opacity:1;fill:#c39b50;stroke:none;stroke-width:0.999999;stop-color:#000000"
       id="path1550"
       d="m 3970.0111,2053.9693 c 2.5553,-4.6351 4.8606,-9.4169 7.6657,-13.9052 12.6414,-20.2266 28.2753,-41.7569 42.2281,-60.7439 24.0975,-32.792 46.9887,-62.899 72.3521,-94.9042 12.9171,-16.2997 26.1713,-32.3292 39.2569,-48.4938 26.2535,-30.9152 41.9828,-50.6799 69.7852,-79.0533 7.3524,-7.5034 30.6845,-33.6937 46.6911,-35.2264 9.8217,-0.9405 16.7549,21.5252 18.0663,24.3384 15.1977,54.4441 16.2864,111.396 21.7545,167.3068 4.1821,42.7621 4.618,42.5205 10.5703,82.9653 3.8353,9.5628 4.6288,21.0162 11.5057,28.6885 6.0184,6.7145 15.4842,11.1584 24.4956,11.4769 27.1845,0.961 52.8967,-24.4542 69.4679,-40.3323 19.1198,-18.3201 70.4099,-77.3815 87.3941,-96.651 38.7863,-43.0756 74.475,-89.6371 118.4253,-127.8258 8.215,-7.1381 30.2499,-28.9963 47.1446,-24.0833 4.7029,1.3677 6.3402,7.4668 9.5103,11.2002 12.0805,29.08 16.0761,60.6806 20.9858,91.537 1.9931,12.5256 3.2132,25.1824 5.6862,37.6221 2.3357,11.749 4.1183,23.8037 8.7236,34.8621 4.2992,10.3232 11.7807,19.011 17.6711,28.5165 8.2261,6.4542 14.8113,15.9032 24.6782,19.3626 31.6346,11.0911 62.0591,-2.2624 90.8844,-13.5606 18.9682,-7.4347 37.3951,-16.2459 55.5524,-25.4861 21.718,-11.0523 42.6053,-23.6669 63.9909,-35.3493 23.1025,-12.6204 46.3148,-25.039 69.4722,-37.5585 22.7731,-11.0921 45.5463,-22.1842 68.3194,-33.2763 0,0 32.9292,-119.63 32.9292,-119.63 v 0 c -22.93,11.2973 -45.86,22.5946 -68.7901,33.8918 -20.9952,10.4545 -106.284,53.2256 -130.0892,63.9671 -17.2681,7.7917 -34.5775,15.6562 -52.5502,21.646 -20.2867,6.7608 -51.7964,16.3719 -74.6047,7.7382 -8.0675,-3.0539 -13.5165,-10.7214 -20.2748,-16.0821 -4.841,-8.3235 -11.0103,-16.0051 -14.5229,-24.9704 -4.1352,-10.5542 -5.9447,-21.8944 -8.1919,-33.0048 -4.3096,-21.3061 -8.1719,-55.6385 -11.9996,-76.7377 -2.2075,-12.1683 -3.9046,-24.5296 -7.7608,-36.2799 -3.288,-10.019 -9.0198,-19.0633 -13.5297,-28.5949 -7.6568,-4.756 -14.0191,-13.2093 -22.9703,-14.2679 -21.8875,-2.5885 -46.6136,24.0163 -58.3291,35.2862 -43.5352,41.8795 -80.1272,90.2729 -120.7949,134.7754 -28.9381,32.0061 -50.8377,58.0415 -82.6995,86.7001 -9.7246,8.7468 -19.8938,17.0993 -30.8329,24.2694 -6.4657,4.2379 -25.7414,16.1015 -35.3109,5.931 -5.7815,-6.1445 -6.9105,-15.3937 -10.3658,-23.0905 -7.0267,-37.3769 -7.7233,-37.2562 -11.9753,-77.594 -3.3665,-31.9375 -5.1906,-64.0217 -8.3092,-95.9843 -1.549,-15.875 -2.5534,-31.8362 -5.1596,-47.5722 -2.1038,-12.7019 -5.962,-25.0502 -8.9429,-37.5753 -9.9881,-14.5755 -16.7273,-34.7534 -40.2867,-31.0363 -18.2912,2.8859 -45.5513,36.185 -54.306,45.9004 -24.7183,27.4308 -48.2821,56.5572 -71.8053,84.9673 -13.0886,16.0845 -26.0811,32.2477 -39.2658,48.2535 -35.9913,43.6924 -36.1611,42.9833 -70.1729,83.8752 -7.9134,9.5143 -15.6105,19.2077 -23.5657,28.687 -12.5539,14.959 -13.7571,16.0819 -24.3321,27.5375 0,0 -33.4683,157.5678 -33.4683,157.5678 z" />
    <rect
       style="opacity:1;fill:#4c38ce;stroke:none;stroke-width:0.938875;stop-color:#000000"
       id="rect1471"
       width="628.21271"
       height="273.04355"
       x="-3099.4028"
       y="4778.8525"
       transform="rotate(-110.5817)" />
    <path
       style="opacity:1;fill:#a73f55;stroke:none;stroke-width:0.999999;stop-color:#000000"
       id="path1145"
       d="m 3229.0942,1303.7663 c -8.1066,6.1784 -15.8955,12.7973 -24.3194,18.5353 -73.0917,49.7879 -157.9905,83.8283 -242.9818,106.864 -29.693,8.0478 -59.9944,13.6534 -89.9919,20.4802 -30.6265,3.2231 -61.1121,8.3534 -91.8798,9.6699 -54.4163,2.3287 -108.4938,-0.7237 -160.4711,-18.677 -22.9653,-7.9321 -44.8448,-19.2291 -65.4008,-32.1819 -48.9302,-30.8314 -62.8383,-53.2894 -100.3952,-96.4298 -91.2183,-131.0459 4.2042,8.3495 -82.672,-125.705 -14.0837,-21.7317 -27.4778,-44.0218 -43.4807,-64.382 -17.1314,-21.7962 -35.3699,-42.9104 -55.6803,-61.7797 -52.9679,-49.21 -86.5609,-65.18953 -147.981,-102.30523 -30.5184,-12.1301 -60.4506,-25.854 -91.5556,-36.3904 -50.3665,-17.0611 -151.8746,-41.9369 -203.5444,-54.8147 -34.1233,-8.5045 -68.5229,-15.9325 -102.4497,-25.1886 -101.7159,-27.7509 -94.8941,-27.9185 -189.3201,-65.1618 -78.6634,-44.0604 -77.4347,-38.7879 -146.5708,-95.3502 -58.5606,-47.9103 -64.804,-64.4869 -128.6445,-107.7247 -64.6039,-43.7546 -104.3966,-58.7358 -175.2711,-91.726 -16.7892,-6.048 -204.2289,-73.4958 -218.0504,-78.7809 -34.4798,-13.1843 -68.4487,-27.6679 -102.6729,-41.5018 0,0 -74.3925,75.9323 -74.3925,75.9323 v 0 c 35.0356,13.0544 70.1839,25.8099 105.1068,39.1634 94.8267,36.259 118.6602,46.6572 211.0777,84.5546 80.9437,39.5919 96.0361,42.4925 168.1297,94.9786 23.0217,16.7605 44.1511,35.9789 66.0437,54.1897 21.2471,17.674 41.5987,36.4411 63.3724,53.4622 75.1541,58.7505 66.7479,49.3739 152.2302,94.3528 77.7146,26.9355 112.9001,40.4628 193.4281,62.7063 33.8259,9.3435 68.1136,16.9253 102.1604,25.4281 33.7704,8.4338 67.7968,15.9097 101.2907,25.3816 99.999,28.2793 93.3822,28.92833 186.0391,68.90323 65.5825,39.6767 87.9922,47.9053 142.8168,102.158 42.9556,42.5071 63.1061,76.8985 95.2591,127.0466 90.7398,141.5251 -11.1773,-13.4062 82.7184,128.2533 41.8057,49.1373 48.9118,65.684 104.8988,99.2694 21.8716,13.1203 44.9586,24.7473 69.2289,32.5871 84.3621,27.2511 173.8762,16.5111 259.974,7.9264 29.4358,-5.673 59.1154,-10.2009 88.307,-17.0189 26.6682,-6.2286 52.9179,-14.165 79.1326,-22.0879 22.739,-6.8726 45.427,-14.0016 67.69,-22.2878 35.1382,-13.0785 67.844,-30.7982 100.8145,-48.3577 0,0 98.0071,-123.991 98.0071,-123.991 z" />
    <rect
       style="opacity:1;fill:#9959c7;stroke:none;stroke-width:0.920822;stop-color:#000000"
       id="rect1459"
       width="441.26636"
       height="421.92908"
       x="-1275.374"
       y="4185.6177"
       transform="rotate(-86.777858)" />
    <rect
       style="opacity:1;fill:#69adbd;stroke:none;stroke-width:1.04604;stop-color:#000000"
       id="rect1465"
       width="484.9863"
       height="328.41626"
       x="3540.0757"
       y="-1822.6598"
       transform="matrix(0.85620148,0.51664207,-0.58316095,0.81235664,0,0)" />
    <rect
       style="opacity:1;fill:#69adbd;stroke:none;stroke-width:0.999999;stop-color:#000000"
       id="rect877"
       width="455.76389"
       height="319.38889"
       x="483.56061"
       y="98.712311"
       transform="rotate(33.351087)" />
    <path
       style="opacity:1;fill:#49ca61;stroke:none;stroke-width:0.999999;stop-color:#000000"
       id="path1477"
       d="m 6178.8996,1595.4731 c -51.6903,36.8066 -108.3778,66.5009 -166.9856,90.691 -47.9243,19.7805 -92.2908,36.0685 -144.2412,41.462 -21.1384,2.1945 -42.5015,-0.468 -63.7522,-0.702 -16.0355,-7.6005 -34.3299,-11.6162 -48.1065,-22.8015 -26.2112,-21.2809 -42.446,-62.4932 -51.7032,-93.0515 -8.9721,-29.6172 -11.9329,-73.4086 -26.8022,-101.7801 -6.7482,-12.8756 -18.5138,-22.4169 -27.7706,-33.6254 -17.5038,-1.0166 -35.263,-6.1978 -52.5114,-3.0497 -22.8779,4.1755 -44.0586,15.0949 -65.3044,24.5528 -42.0412,18.7156 -84.4804,44.9158 -124.52,67.5136 -15.9898,9.0244 -31.7319,18.5379 -48.1827,26.6916 -10.9435,5.4242 -22.5808,9.3188 -33.8711,13.9781 -4.9165,-1.559 -11.3166,-0.8276 -14.7496,-4.6769 -3.2899,-3.6889 -1.8139,-9.7226 -2.4626,-14.6227 -1.0318,-7.7936 -1.1212,-15.7181 -2.5767,-23.4438 -1.8683,-9.9167 -1.8155,-20.9386 -7.3719,-29.3623 -22.6791,-34.3824 -47.821,-30.9326 -86.0965,-40.1483 -23.2043,-2.1483 -46.3551,-4.9845 -69.6129,-6.4449 -26.7962,-1.6827 -53.6682,-1.8134 -80.4918,-2.9807 -89.1476,-3.8798 -71.8612,-3.2525 -157.3616,-10.1257 0,0 -39.1657,118.2375 -39.1657,118.2375 v 0 c 68.6723,2.3568 88.018,2.1751 157.8421,8.1656 25.9996,2.2307 52.0252,4.4732 77.8596,8.1531 21.8803,3.1166 43.4451,8.1465 65.1677,12.2197 31.329,13.1433 52.9774,13.5975 67.8903,45.3566 8.6183,18.3538 3.0183,41.343 11.6026,59.7127 3.7226,7.9658 8.7916,16.863 16.9067,20.2477 7.7365,3.2268 16.6627,-1.8477 24.9941,-2.7715 12.3711,-7.3846 24.9158,-14.4857 37.1132,-22.1537 41.4229,-26.0408 64.4515,-43.9702 108.3547,-67.9924 34.8252,-19.055 79.8807,-41.8698 120.3161,-48.0695 13.4461,-2.0616 27.1677,1.4533 40.7516,2.18 8.198,9.064 18.6745,16.5 24.594,27.1922 13.428,24.2546 20.795,74.4116 29.3153,98.8883 11.6728,33.5331 30.3371,76.0241 61.2851,97.4181 15.9912,11.0546 36.5596,13.232 54.8394,19.848 22.4602,-0.9371 45.0898,0.097 67.3807,-2.8113 52.6858,-6.873 96.9398,-21.8437 146.5215,-40.1972 22.5384,-8.343 44.4761,-18.23 66.8226,-27.074 45.7425,-18.1034 53.4384,-20.6567 94.1754,-35.4934 0,0 39.9077,-149.1301 39.9077,-149.1301 z" />
    <rect
       style="opacity:1;fill:#2aaeb6;stroke:none;stroke-width:0.999804;stop-color:#000000"
       id="rect1473"
       width="222.02614"
       height="501.42996"
       x="5826.8135"
       y="-283.51752"
       transform="matrix(0.97109847,0.2386792,0.2386792,-0.97109847,0,0)" />
    <rect
       style="opacity:1;fill:#439793;stroke:none;stroke-width:0.938875;stop-color:#000000"
       id="rect943"
       width="628.21271"
       height="273.04355"
       x="-868.18835"
       y="1924.262"
       transform="matrix(-0.97989772,0.19950053,0.19950053,0.97989772,0,0)" />
    <rect
       style="opacity:1;fill:#439793;stroke:none;stroke-width:0.938875;stop-color:#000000"
       id="rect1490"
       width="628.21271"
       height="273.04355"
       x="-4568.9907"
       y="2677.7224"
       transform="matrix(-0.97989772,0.19950053,0.19950053,0.97989772,0,0)" />
    <path
       style="opacity:1;fill:#a0b244;stroke:none;stroke-width:0.999999;stop-color:#000000"
       id="path1518"
       d="m 6835.6008,2070.842 c 60.0309,-129.168 133.5784,-251.7651 213.2484,-369.6931 22.41,-33.1712 45.9276,-65.5805 68.8914,-98.3708 22.5971,-30.5873 45.1942,-61.1745 67.7913,-91.7618 0,0 22.8187,-101.8644 22.8187,-101.8644 v 0 c -22.8385,31.3475 -45.677,62.6951 -68.5154,94.0427 -40.0868,56.8537 -95.6193,134.9378 -134.6441,192.9167 -50.5389,75.0856 -50.599,77.2848 -94.0258,148.7785 -26.4773,43.5897 -22.9104,37.7151 -43.3377,70.7962 0,0 -32.2268,155.156 -32.2268,155.156 z" />
    <rect
       style="opacity:1;fill:#b33c79;stroke:none;stroke-width:0.920822;stop-color:#000000"
       id="rect1494"
       width="441.26636"
       height="421.92908"
       x="-1355.8943"
       y="-7329.6606"
       transform="rotate(107.79109)" />
    <rect
       style="opacity:1;fill:#3b8ab0;stroke:none;stroke-width:0.999999;stop-color:#000000"
       id="rect1500"
       width="455.76389"
       height="319.38889"
       x="-6218.8477"
       y="-213.54196"
       transform="matrix(-0.99496367,-0.10023618,-0.10023618,0.99496367,0,0)" />
    <rect
       style="opacity:1;fill:#93275b;stroke:none;stroke-width:0.999804;stop-color:#000000"
       id="rect1508"
       width="222.02614"
       height="501.42996"
       x="-5361.5088"
       y="2214.3049"
       transform="rotate(-148.14594)" />
    <rect
       style="opacity:1;fill:#9a427d;stroke:none;stroke-width:0.975274;stop-color:#000000"
       id="rect1502"
       width="337.51309"
       height="299.28769"
       x="4806.104"
       y="-1941.8882"
       transform="matrix(0.99345677,-0.11420876,-0.11420876,-0.99345677,0,0)" />
    <rect
       style="opacity:1;fill:#658bc8;stroke:none;stroke-width:0.959365;stop-color:#000000"
       id="rect1506"
       width="417.87082"
       height="174.55144"
       x="4928.8057"
       y="-1482.9114"
       transform="matrix(0.98116078,-0.19319298,-0.19319298,-0.98116078,0,0)" />
    <rect
       style="opacity:1;fill:#c53ea3;stroke:none;stroke-width:0.975274;stop-color:#000000"
       id="rect1520"
       width="337.51309"
       height="299.28769"
       x="-6951.8042"
       y="2043.7749"
       transform="matrix(-0.96988133,0.24357792,0.24357792,0.96988133,0,0)" />
    <rect
       style="opacity:1;fill:#3d8d60;stroke:none;stroke-width:0.999804;stop-color:#000000"
       id="rect1522"
       width="222.02614"
       height="501.42996"
       x="-6767.8013"
       y="-1896.8821"
       transform="matrix(-0.94026781,-0.34043566,-0.34043566,0.94026781,0,0)" />
    <path
       style="opacity:1;fill:#c972ad;stroke:none;stroke-width:1.02749;stop-color:#000000"
       id="path1447"
       d="m 6002.8174,455.34469 c 63.4543,-20.3482 129.7967,-32.4457 196.4055,-38.7192 54.467,-5.1298 104.2748,-7.9406 158.4343,1.8664 22.0376,3.9905 42.8244,12.6967 64.2362,19.045 13.8985,11.8996 31.1713,21.0173 41.6956,35.6981 20.023,27.9318 23.8965,72.0744 23.9573,104.0041 0.059,30.9463 -10.2713,73.7329 -3.8715,105.1857 2.9047,14.2742 11.896,26.8014 17.8438,40.2021 17.3859,6.018 33.7631,16.0975 52.1581,18.0538 24.3985,2.5948 49.1333,-1.7571 73.4891,-4.691 48.1956,-5.8054 99.0706,-18.6633 146.4239,-28.7632 18.9102,-4.0335 37.7191,-8.6066 56.8308,-11.6733 12.7133,-2.0401 25.663,-2.4158 38.4943,-3.6237 4.4961,2.9098 11.1889,4.054 13.4881,8.7293 2.2038,4.4804 -1.1243,9.8328 -1.9591,14.7122 -1.3282,7.7601 -3.6483,15.3742 -4.528,23.1914 -1.1285,10.0343 -4.5352,20.5735 -1.481,30.241 12.4662,39.4597 38.9329,43.4018 74.823,63.2574 22.8047,8.7445 45.3457,18.1322 68.4138,26.2334 26.5773,9.3338 53.7036,17.2031 80.4655,26.0514 88.9424,29.4069 71.6578,23.8243 156.0025,55.0462 0,0 75.5684,-101.9333 75.5684,-101.9333 v 0 c -68.7065,-22.0478 -88.319,-27.4491 -157.0844,-53.308 -25.6055,-9.629 -51.2336,-19.2768 -76.231,-30.2458 -21.1714,-9.2901 -41.4418,-20.3214 -62.1629,-30.4821 -27.6729,-21.6144 -49.4198,-28.2883 -54.833,-62.9977 -3.1284,-20.0589 9.5273,-40.4587 6.4382,-60.5229 -1.3397,-8.7008 -3.7571,-18.6814 -10.9313,-24.2611 -6.8392,-5.3196 -17.4071,-3.0327 -26.1107,-4.5493 -14.7532,3.5061 -29.5956,6.6906 -44.2596,10.5181 -49.7992,12.9982 -78.5348,23.5301 -130.2272,33.8806 -41.0038,8.2102 -93.4937,17.0723 -136.2578,11.3559 -14.2205,-1.9011 -27.0227,-9.2213 -40.5343,-13.8319 -5.5298,-11.0422 -13.8585,-21.1816 -16.5896,-33.1263 -6.1955,-27.0956 1.6174,-77.2474 0.4513,-103.1411 -1.598,-35.4744 -7.5384,-81.5415 -32.3161,-110.9468 -12.8026,-15.1941 -32.9336,-23.2068 -49.4005,-34.8104 -22.9909,-5.5753 -45.5536,-13.0873 -68.9731,-16.7265 -55.3534,-8.602 -104.6464,-7.0204 -160.3548,-3.7349 -25.3232,1.4939 -50.5092,4.6391 -75.7911,6.6676 -51.751,4.1529 -60.3079,4.3799 -106.0049,6.8471 0,0 -85.7176,131.3017 -85.7176,131.3017 z" />
    <rect
       style="opacity:1;fill:#576cc4;stroke:none;stroke-width:0.999999;stop-color:#000000"
       id="rect1524"
       width="146.98611"
       height="394.61111"
       x="6414.3433"
       y="-2416.7405"
       transform="rotate(34.243407)" />
    <rect
       style="opacity:1;fill:#4036ad;stroke:none;stroke-width:0.978012;stop-color:#000000"
       id="rect1526"
       width="441.84479"
       height="263.05847"
       x="-6602.4878"
       y="1962.1217"
       transform="matrix(-0.9973162,0.0732147,0.0732147,0.9973162,0,0)" />
    <rect
       style="opacity:1;fill:#6ac7bb;stroke:none;stroke-width:0.975274;stop-color:#000000"
       id="rect1528"
       width="337.51309"
       height="299.28769"
       x="-6338.0073"
       y="2107.333"
       transform="rotate(-143.33062)" />
    <rect
       style="opacity:1;fill:#2e7a93;stroke:none;stroke-width:0.999999;stop-color:#000000"
       id="rect1530"
       width="146.98611"
       height="394.61111"
       x="-6173.8169"
       y="1561.9087"
       transform="rotate(-146.07243)" />
    <rect
       style="opacity:1;fill:#9c3e7a;stroke:none;stroke-width:0.997478;stop-color:#000000"
       id="rect1013"
       width="309.9111"
       height="175.08522"
       x="2717.4939"
       y="-165.65833"
       transform="matrix(0.95851144,0.28505408,0.28505408,-0.95851144,0,0)" />
    <rect
       style="opacity:1;fill:#9c3e7a;stroke:none;stroke-width:0.997478;stop-color:#000000"
       id="rect1534"
       width="309.9111"
       height="175.08522"
       x="6288.0737"
       y="896.20581"
       transform="matrix(0.95851144,0.28505408,0.28505408,-0.95851144,0,0)" />
    <path
       style="opacity:1;fill:#6eb23b;stroke:none;stroke-width:0.999999;stop-color:#000000"
       id="path1546"
       d="m 6145.5851,154.94359 c -7.2559,1.6816 -14.4143,3.86 -21.7676,5.0449 -34.8071,5.6089 -66.9791,7.3192 -102.7018,7.1406 -25.4412,-0.1271 -50.8522,-1.7926 -76.2688,-2.9187 -31.3569,-1.3892 -62.6994,-3.0847 -94.0492,-4.627 -37.0339,-1.5965 -74.0678,-3.193 -111.1017,-4.7894 -146.1283,-10.1034 -74.5434,-4.487 -214.7668,-16.6967 0,0 -34.7429,104.5083 -34.7429,104.5083 v 0 c 141.4404,6.951 69.5621,2.4505 215.6219,13.7045 36.0761,4.2838 72.2016,8.1705 108.2283,12.8514 30.5046,3.9633 60.8812,8.8593 91.3513,13.0795 24.7796,3.4321 49.6131,6.4661 74.3957,9.8769 28.5332,3.9269 68.4225,10.6193 98.7453,12.876 6.8836,0.5123 13.8048,0.1113 20.7072,0.167 0,0 46.3491,-150.2173 46.3491,-150.2173 z" />
    <rect
       style="opacity:1;fill:#50c441;stroke:none;stroke-width:0.999999;stop-color:#000000"
       id="rect1552"
       width="284.93054"
       height="167.27777"
       x="3254.3967"
       y="-2811.3005"
       transform="matrix(0.90695307,-0.42123167,-0.42123167,-0.90695307,0,0)" />
    <path
       style="opacity:1;fill:#c7b26f;stroke:none;stroke-width:0.999999;stop-color:#000000"
       id="path1451"
       d="m 6829.2522,1771.4262 c 3.627,-47.8591 7.161,-95.9514 7.9359,-144.0898 0.6465,-40.1642 0.2008,-80.399 -0.3368,-120.6267 -0.6234,-46.6517 -0.2789,-93.3134 -3.1459,-139.9988 -3.2283,-52.5736 -10.0854,-105.0519 -15.128,-157.5777 -24.0072,-166.9868 -51.9319,-333.63741 -85.219,-499.51721 -22.1236,-110.2483 -35.2848,-165.011 -59.7465,-272.3172 0,0 -38.8065,89.7155 -38.8065,89.7155 v 0 c 10.8662,39.1558 22.4452,78.1563 32.5989,117.4671 26.8047,103.7766 45.394,188.5373 65.7253,294.17441 33.9029,176.1526 29.1581,161.6633 52.7299,342.6008 3.5722,55.2558 8.8102,110.5162 10.7166,165.7671 5.3751,155.7777 -5.2877,311.6305 -34.7446,462.9141 0,0 67.4207,-138.5116 67.4207,-138.5116 z" />
    <path
       style="opacity:1;fill:#a73f55;stroke:none;stroke-width:0.980489;stop-color:#000000"
       id="path1445"
       d="m 6932.1682,1303.7663 c -7.7934,6.1784 -15.2813,12.7973 -23.3797,18.5353 -70.2675,49.7879 -151.8858,83.8283 -233.5931,106.864 -28.5457,8.0478 -57.6763,13.6534 -86.5147,20.4802 -29.4431,3.2231 -58.7507,8.3534 -88.3296,9.6699 -52.3137,2.3287 -104.3017,-0.7237 -154.2706,-18.677 -22.0779,-7.9321 -43.112,-19.2291 -62.8737,-32.1819 -47.0396,-30.8314 -60.4103,-53.2894 -96.516,-96.4298 -87.6937,-131.0459 4.0417,8.3495 -79.4776,-125.705 -13.5395,-21.7317 -26.4161,-44.0218 -41.8006,-64.382 -16.4695,-21.7962 -34.0033,-42.9104 -53.5289,-61.7797 -50.9212,-49.21 -83.2162,-65.18953 -142.2631,-102.30523 -29.3392,-12.1301 -58.1148,-25.854 -88.0179,-36.3904 -48.4204,-17.0611 -146.0063,-41.9369 -195.6796,-54.8147 -32.8048,-8.5045 -65.8752,-15.9325 -98.4911,-25.1886 -97.7856,-27.7509 -91.2274,-27.9185 -182.0049,-65.1618 -75.6238,-44.0604 -74.4426,-38.7879 -140.9073,-95.3502 -56.2979,-47.9103 -62.3,-64.4869 -123.6738,-107.7247 -62.1076,-43.7546 -100.3628,-58.7358 -168.4987,-91.726 -16.1405,-6.048 -196.3376,-73.4958 -209.6251,-78.7809 -33.1475,-13.1843 -65.8038,-27.6679 -98.7056,-41.5018 0,0 -71.518,75.9323 -71.518,75.9323 v 0 c 33.6818,13.0544 67.472,25.8099 101.0455,39.1634 91.1626,36.259 114.0752,46.6572 202.9218,84.5546 77.816,39.5919 92.3253,42.4925 161.6332,94.9786 22.1322,16.7605 42.4451,35.9789 63.4918,54.1897 20.4261,17.674 39.9914,36.4411 60.9238,53.4622 72.2501,58.7505 64.1687,49.3739 146.3481,94.3528 74.7117,26.9355 108.5377,40.4628 185.9541,62.7063 32.5189,9.3435 65.4817,16.9253 98.213,25.4281 32.4655,8.4338 65.1771,15.9097 97.3769,25.3816 96.1351,28.2793 89.7739,28.92833 178.8506,68.90323 63.0484,39.6767 84.5922,47.9053 137.2984,102.158 41.2959,42.5071 60.6678,76.8985 91.5784,127.0466 87.2337,141.5251 -10.7454,-13.4062 79.5222,128.2533 40.1903,49.1373 47.0219,65.684 100.8456,99.2694 21.0265,13.1203 43.2214,24.7473 66.5539,32.5871 81.1024,27.2511 167.1577,16.5111 249.9287,7.9264 28.2985,-5.673 56.8313,-10.2009 84.8949,-17.0189 25.6378,-6.2286 50.8732,-14.165 76.075,-22.0879 21.8603,-6.8726 43.6717,-14.0016 65.0745,-22.2878 33.7804,-13.0785 65.2225,-30.7982 96.919,-48.3577 0,0 94.2202,-123.991 94.2202,-123.991 z" />
  </g>
</svg>
