<?xml version="1.0" encoding="UTF-8" standalone="no"?>
<svg
   xmlns:dc="http://purl.org/dc/elements/1.1/"
   xmlns:cc="http://creativecommons.org/ns#"
   xmlns:rdf="http://www.w3.org/1999/02/22-rdf-syntax-ns#"
   xmlns:svg="http://www.w3.org/2000/svg"
   xmlns="http://www.w3.org/2000/svg"
   width="1920"
   height="960"
   viewBox="0 0 1920 960"
   version="1.1"
   id="svg1596">
  <defs
     id="defs1590" />
  <metadata
     id="metadata1593">
    <rdf:RDF>
      <cc:Work
         rdf:about="">
        <dc:format>image/svg+xml</dc:format>
        <dc:type
           rdf:resource="http://purl.org/dc/dcmitype/StillImage" />
        <dc:title></dc:title>
      </cc:Work>
    </rdf:RDF>
  </metadata>
  <path
     id="path1633"
     style="fill:#806600;stroke:none;stroke-width:0.84262;stop-color:#000000"
     d="m 1129.5861,330.09961 h 640.8279 l -80,506.78806 h -560.8279 z" />
  <path
     id="rect1628"
     style="fill:#806600;stroke:none;stroke-width:0.84262;stop-color:#000000"
     d="M 129.58603,330.09961 H 770.41397 V 836.88767 H 209.58603 Z" />
  <path
     d="m 1645.887,648.28217 h -429.6888 v -39.58346 q 15.625,-1.04167 49.4793,-5.20835 34.3751,-4.16668 46.8751,-8.33336 15.6251,-5.20835 24.4793,-17.70839 8.8542,-12.50004 8.8542,-34.37511 V 212.86412 H 1214.1148 V 163.3848 h 28.6459 q 45.3127,0 78.1253,-9.89587 33.3334,-9.89586 55.2085,-23.95841 22.3959,-14.58338 36.4584,-30.208426 14.5834,-15.625049 22.9168,-27.604254 h 91.6669 q -1.5625,33.85427 -3.125,79.16692 -1.5625,45.31264 -1.5625,81.25025 v 305.2093 q 0,18.75006 7.8126,32.81261 8.3333,13.54171 23.4375,20.8334 13.5417,6.25002 45.3127,11.45837 31.7709,5.20835 46.8751,6.25002 z"
     style="font-style:normal;font-variant:normal;font-weight:bold;font-stretch:normal;font-size:1066.67px;line-height:1.25;font-family:Georgia;-inkscape-font-specification:'Georgia Bold';letter-spacing:0px;word-spacing:0px;fill:#ffcc00;fill-opacity:1;stroke:none"
     id="path1660" />
  <path
     d="M 705.8861,648.28217 H 276.19724 v -39.58346 q 15.62505,-1.04167 49.47932,-5.20835 34.37511,-4.16668 46.87515,-8.33336 15.62505,-5.20835 24.47925,-17.70839 8.85419,-12.50004 8.85419,-34.37511 V 212.86412 H 274.1139 V 163.3848 h 28.64593 q 45.31264,0 78.12524,-9.89587 33.33344,-9.89586 55.20851,-23.95841 22.39591,-14.58338 36.45845,-30.208426 14.58338,-15.625049 22.91674,-27.604254 h 91.66696 q -1.56251,33.85427 -3.12501,79.16692 -1.56251,45.31264 -1.56251,81.25025 v 305.2093 q 0,18.75006 7.81253,32.81261 8.33336,13.54171 23.43757,20.8334 13.54171,6.25002 45.31264,11.45837 31.77094,5.20835 46.87515,6.25002 z"
     style="font-style:normal;font-variant:normal;font-weight:bold;font-stretch:normal;font-size:1066.67px;line-height:1.25;font-family:Georgia;-inkscape-font-specification:'Georgia Bold';letter-spacing:0px;word-spacing:0px;fill:#ffcc00;fill-opacity:1;stroke:none"
     id="path1663" />
</svg>
