<?xml version="1.0" encoding="UTF-8" standalone="no"?>
<svg
   xmlns:dc="http://purl.org/dc/elements/1.1/"
   xmlns:cc="http://creativecommons.org/ns#"
   xmlns:rdf="http://www.w3.org/1999/02/22-rdf-syntax-ns#"
   xmlns:svg="http://www.w3.org/2000/svg"
   xmlns="http://www.w3.org/2000/svg"
   width="1920"
   height="960"
   viewBox="0 0 1920 960"
   version="1.1"
   id="svg1596">
  <defs
     id="defs1590" />
  <metadata
     id="metadata1593">
    <rdf:RDF>
      <cc:Work
         rdf:about="">
        <dc:format>image/svg+xml</dc:format>
        <dc:type
           rdf:resource="http://purl.org/dc/dcmitype/StillImage" />
        <dc:title></dc:title>
      </cc:Work>
    </rdf:RDF>
  </metadata>
  <path
     id="path1633"
     style="fill:#668000;stroke:none;stroke-width:0.84262;stop-color:#000000"
     d="m 1129.5861,330.09961 h 640.8279 l -80,506.78806 h -560.8279 z" />
  <path
     id="rect1628"
     style="fill:#668000;stroke:none;stroke-width:0.84262;stop-color:#000000"
     d="M 129.58603,330.09961 H 770.41397 V 836.88767 H 209.58603 Z" />
  <path
     d="M 758.5705,647.13477 H 193.98538 v -94.27114 q 36.97928,-37.50011 80.72942,-68.22938 44.27097,-31.2501 89.58361,-55.20851 48.43766,-25.52091 81.25026,-45.31264 32.81261,-20.31256 51.56267,-42.18763 18.75005,-20.31257 26.56258,-44.27098 8.33336,-23.95841 8.33336,-53.646 0,-66.14604 -31.2501,-96.35447 -31.2501,-30.20843 -82.81276,-30.20843 -16.14589,0 -30.72927,2.60417 -14.06254,2.08334 -29.68759,8.33336 7.81252,23.43758 15.10421,48.43766 7.29169,25.00008 7.29169,55.72934 0,36.97928 -26.56258,58.85435 -26.56258,21.87507 -67.70855,21.87507 -39.06262,0 -62.5002,-25.52091 -22.91673,-25.52092 -22.91673,-61.97937 0,-63.54186 73.95856,-109.89618 73.95857,-46.35431 180.20891,-46.35431 122.91705,0 198.43812,42.18763 76.04191,42.18764 76.04191,135.93793 0,48.43766 -20.31256,78.12525 -19.79173,29.6876 -58.85436,52.0835 -34.89594,20.31256 -77.60441,33.33344 -42.18763,13.02087 -90.62528,25.00008 -51.56267,13.02087 -90.10446,27.60425 -38.02095,14.58338 -67.70854,34.89595 v 5.72918 H 758.5705 Z"
     style="font-style:normal;font-variant:normal;font-weight:bold;font-stretch:normal;font-size:1066.67px;line-height:1.25;font-family:Georgia;-inkscape-font-specification:'Georgia Bold';letter-spacing:0px;word-spacing:0px;fill:#aad400"
     id="path875" />
  <path
     d="m 1701.9193,647.13477 h -564.5851 v -94.27114 q 36.9793,-37.50011 80.7294,-68.22938 44.271,-31.2501 89.5836,-55.20851 48.4377,-25.52091 81.2503,-45.31264 32.8126,-20.31256 51.5627,-42.18763 18.75,-20.31257 26.5626,-44.27098 8.3333,-23.95841 8.3333,-53.646 0,-66.14604 -31.2501,-96.35447 -31.2501,-30.20843 -82.8128,-30.20843 -16.1458,0 -30.7292,2.60417 -14.0626,2.08334 -29.6876,8.33336 7.8125,23.43758 15.1042,48.43766 7.2917,25.00008 7.2917,55.72934 0,36.97928 -26.5626,58.85435 -26.5626,21.87507 -67.7085,21.87507 -39.0627,0 -62.5002,-25.52091 -22.9168,-25.52092 -22.9168,-61.97937 0,-63.54186 73.9586,-109.89618 73.9586,-46.35431 180.2089,-46.35431 122.9171,0 198.4381,42.18763 76.0419,42.18764 76.0419,135.93793 0,48.43766 -20.3125,78.12525 -19.7918,29.6876 -58.8544,52.0835 -34.8959,20.31256 -77.6044,33.33344 -42.1876,13.02087 -90.6253,25.00008 -51.5626,13.02087 -90.1044,27.60425 -38.021,14.58338 -67.7086,34.89595 v 5.72918 h 434.8972 z"
     style="font-style:normal;font-variant:normal;font-weight:bold;font-stretch:normal;font-size:1066.67px;line-height:1.25;font-family:Georgia;-inkscape-font-specification:'Georgia Bold';letter-spacing:0px;word-spacing:0px;fill:#aad400"
     id="path878" />
</svg>
