<?xml version="1.0" encoding="UTF-8" standalone="no"?>
<svg
   xmlns:dc="http://purl.org/dc/elements/1.1/"
   xmlns:cc="http://creativecommons.org/ns#"
   xmlns:rdf="http://www.w3.org/1999/02/22-rdf-syntax-ns#"
   xmlns:svg="http://www.w3.org/2000/svg"
   xmlns="http://www.w3.org/2000/svg"
   width="1920"
   height="960"
   viewBox="0 0 1920 960"
   version="1.1"
   id="svg1596">
  <defs
     id="defs1590" />
  <metadata
     id="metadata1593">
    <rdf:RDF>
      <cc:Work
         rdf:about="">
        <dc:format>image/svg+xml</dc:format>
        <dc:type
           rdf:resource="http://purl.org/dc/dcmitype/StillImage" />
        <dc:title></dc:title>
      </cc:Work>
    </rdf:RDF>
  </metadata>
  <path
     id="path1633"
     style="fill:none;stroke:#5a2ca0;stroke-width:10;stroke-miterlimit:4;stroke-dasharray:none;stop-color:#000000"
     d="m 1129.5861,330.09961 h 640.8279 l -80,506.78806 h -560.8279 z" />
  <path
     id="rect1628"
     style="fill:none;stroke:#5a2ca0;stroke-width:10;stroke-miterlimit:4;stroke-dasharray:none;stop-color:#000000"
     d="M 129.58603,330.09961 H 770.41397 V 836.88767 H 209.58603 Z" />
  <g
     aria-label="3"
     id="text919"
     style="font-stretch:condensed;font-size:978.948px;line-height:1.25;font-family:Impact;-inkscape-font-specification:'Impact Condensed';letter-spacing:0px;word-spacing:0px;fill:#8d5fd3;stroke-width:0.917761">
    <path
       d="m 688.74832,453.69316 q 28.68012,19.12008 47.8002,51.14621 19.12008,31.54813 19.12008,77.91432 0,89.38637 -85.56235,148.65861 -85.56235,59.27224 -220.3589,59.27224 -96.5564,0 -163.95467,-41.58617 -67.39828,-41.10817 -67.39828,-101.33641 0,-33.93814 21.51009,-57.36024 21.98809,-23.42209 58.31624,-23.42209 37.76215,0 61.66225,20.55408 24.3781,20.07608 24.3781,54.01422 0,23.4221 -8.60404,52.10221 -8.12603,29.15812 -12.90605,43.02018 10.51604,4.78002 27.24611,7.17003 16.73007,2.86801 39.19616,2.86801 27.72412,0 54.01422,-9.08204 26.76811,-9.08203 46.36619,-29.63612 20.55409,-21.51009 31.54813,-50.66821 11.47205,-28.68011 11.47205,-76.48031 0,-27.24611 -5.25802,-51.62421 -4.78002,-24.3781 -18.16408,-42.54217 Q 535.7877,468.51122 512.3656,458.47318 489.42151,447.95714 453.57136,447.95714 H 392.86511 V 390.1189 h 43.02018 q 60.22825,0 86.99635,-35.37214 27.24612,-35.85015 27.24612,-108.98445 0,-58.79424 -26.29011,-87.95236 -25.81211,-29.63612 -75.04631,-29.63612 -18.64207,0 -32.50413,2.39001 -13.86206,1.91201 -28.20212,7.64803 5.25803,16.25207 12.90606,45.41019 7.64803,29.15812 7.64803,49.7122 0,33.93814 -23.4221,54.01422 -23.42209,20.07609 -61.18425,20.07609 -35.85014,0 -57.36023,-23.4221 -21.03209,-23.4221 -21.03209,-56.88223 0,-59.27224 68.35428,-100.85841 68.83228,-42.064176 172.55871,-42.064176 71.70029,0 118.54448,16.730066 47.32219,16.73007 74.5683,41.10817 26.76811,23.9001 36.80616,51.62421 10.51604,27.24611 10.51604,49.2342 0,21.03209 -9.08204,47.8002 -8.60403,26.2901 -25.8121,46.36619 -21.03209,24.3781 -54.97023,42.06417 -33.93814,17.68607 -79.34832,27.24611 v 7.64803 q 31.07012,1.91201 66.92027,11.47205 36.32815,9.56004 64.05226,28.20211 z"
       style="font-style:normal;font-variant:normal;font-weight:bold;font-stretch:normal;font-size:978.948px;font-family:Georgia;-inkscape-font-specification:'Georgia Bold';fill:#8d5fd3;stroke-width:0.917761"
       id="path936" />
  </g>
  <g
     aria-label="3"
     id="text923"
     style="font-stretch:condensed;font-size:978.948px;line-height:1.25;font-family:Impact;-inkscape-font-specification:'Impact Condensed';letter-spacing:0px;word-spacing:0px;fill:#8d5fd3;stroke-width:0.917761">
    <path
       d="m 1628.8465,453.69316 q 28.6801,19.12008 47.8002,51.14621 19.1201,31.54813 19.1201,77.91432 0,89.38637 -85.5624,148.65861 -85.5623,59.27224 -220.3589,59.27224 -96.5564,0 -163.9546,-41.58617 -67.3983,-41.10817 -67.3983,-101.33641 0,-33.93814 21.5101,-57.36024 21.9881,-23.42209 58.3162,-23.42209 37.7622,0 61.6623,20.55408 24.3781,20.07608 24.3781,54.01422 0,23.4221 -8.6041,52.10221 -8.126,29.15812 -12.906,43.02018 10.516,4.78002 27.2461,7.17003 16.73,2.86801 39.1961,2.86801 27.7242,0 54.0143,-9.08204 26.7681,-9.08203 46.3661,-29.63612 20.5541,-21.51009 31.5482,-50.66821 11.472,-28.68011 11.472,-76.48031 0,-27.24611 -5.258,-51.62421 -4.78,-24.3781 -18.1641,-42.54217 -13.384,-18.16408 -36.8061,-28.20212 -22.9441,-10.51604 -58.7943,-10.51604 h -60.7062 V 390.1189 h 43.0202 q 60.2282,0 86.9963,-35.37214 27.2461,-35.85015 27.2461,-108.98445 0,-58.79424 -26.2901,-87.95236 -25.8121,-29.63612 -75.0463,-29.63612 -18.6421,0 -32.5041,2.39001 -13.8621,1.91201 -28.2021,7.64803 5.258,16.25207 12.906,45.41019 7.6481,29.15812 7.6481,49.7122 0,33.93814 -23.4221,54.01422 -23.4221,20.07609 -61.1843,20.07609 -35.8501,0 -57.3602,-23.4221 -21.0321,-23.4221 -21.0321,-56.88223 0,-59.27224 68.3543,-100.85841 68.8322,-42.064176 172.5587,-42.064176 71.7003,0 118.5445,16.730066 47.3221,16.73007 74.5683,41.10817 26.7681,23.9001 36.8061,51.62421 10.5161,27.24611 10.5161,49.2342 0,21.03209 -9.0821,47.8002 -8.604,26.2901 -25.8121,46.36619 -21.0321,24.3781 -54.9702,42.06417 -33.9382,17.68607 -79.3483,27.24611 v 7.64803 q 31.0701,1.91201 66.9202,11.47205 36.3282,9.56004 64.0523,28.20211 z"
       style="font-style:normal;font-variant:normal;font-weight:bold;font-stretch:normal;font-size:978.948px;font-family:Georgia;-inkscape-font-specification:'Georgia Bold';fill:#8d5fd3;stroke-width:0.917761"
       id="path933" />
  </g>
</svg>
