<?xml version="1.0" encoding="UTF-8" standalone="no"?>
<svg
   xmlns:dc="http://purl.org/dc/elements/1.1/"
   xmlns:cc="http://creativecommons.org/ns#"
   xmlns:rdf="http://www.w3.org/1999/02/22-rdf-syntax-ns#"
   xmlns:svg="http://www.w3.org/2000/svg"
   xmlns="http://www.w3.org/2000/svg"
   width="1920"
   height="960"
   viewBox="0 0 1920 960"
   version="1.1"
   id="svg1596">
  <defs
     id="defs1590">
    <filter
       style="color-interpolation-filters:sRGB"
       id="filter1225"
       x="-0.073002678"
       width="1.1460054"
       y="-0.26578661"
       height="1.5315732">
      <feGaussianBlur
         stdDeviation="16.384551"
         id="feGaussianBlur1227" />
    </filter>
    <filter
       style="color-interpolation-filters:sRGB"
       id="filter1229"
       x="-0.073002677"
       width="1.1460054"
       y="-0.26578661"
       height="1.5315732">
      <feGaussianBlur
         stdDeviation="16.384551"
         id="feGaussianBlur1231" />
    </filter>
  </defs>
  <metadata
     id="metadata1593">
    <rdf:RDF>
      <cc:Work
         rdf:about="">
        <dc:format>image/svg+xml</dc:format>
        <dc:type
           rdf:resource="http://purl.org/dc/dcmitype/StillImage" />
        <dc:title></dc:title>
      </cc:Work>
    </rdf:RDF>
  </metadata>
  <path
     id="path1633"
     style="fill:#214478;stroke:none;stroke-width:10;stroke-miterlimit:4;stroke-dasharray:none;stroke-opacity:1;stop-color:#000000"
     d="m 1129.5861,349.59095 h 640.8279 l -80,487.29672 h -560.8279 z" />
  <path
     id="path1233"
     style="font-style:normal;font-variant:normal;font-weight:bold;font-stretch:normal;font-size:1066.67px;line-height:1.25;font-family:Georgia;-inkscape-font-specification:'Georgia Bold';font-variation-settings:normal;letter-spacing:0px;word-spacing:0px;vector-effect:none;fill:#2c5aa0;fill-opacity:1;stroke:none;stroke-width:10;stroke-linecap:butt;stroke-linejoin:miter;stroke-miterlimit:4;stroke-dasharray:none;stroke-dashoffset:0;stroke-opacity:1;stop-color:#000000"
     d="m 1694.3282,630.96289 h -23.2423 -23.2421 -23.2422 -23.2422 -23.2422 -23.2422 -23.2422 -23.2422 c -0.9133,2.236 -1.8577,4.44236 -2.8332,6.61904 -0.9755,2.17668 -1.9821,4.32367 -3.0199,6.44092 -1.0378,2.11726 -2.1068,4.20479 -3.2069,6.26253 -1.1002,2.05774 -2.2316,4.08571 -3.3942,6.08384 -1.1626,1.99814 -2.3564,3.96645 -3.5816,5.90488 -1.2251,1.93844 -2.4816,3.84699 -3.7694,5.72563 -1.2877,1.87864 -2.6068,3.72735 -3.9573,5.5461 -1.3505,1.81874 -2.7324,3.60752 -4.1457,5.36628 -1.6927,2.12674 -3.4288,4.18837 -5.2083,6.18488 -1.7796,1.99651 -3.6025,3.92791 -5.4689,5.7942 -1.8663,1.86629 -3.7761,3.66747 -5.7292,5.40354 -1.9532,1.73607 -3.9498,3.40704 -5.9897,5.0129 -2.04,1.60585 -4.1234,3.14661 -6.2501,4.62226 -2.1268,1.47566 -4.297,2.88621 -6.5105,4.23166 -2.2136,1.34546 -4.4706,2.62581 -6.771,3.84107 -2.3003,1.21526 -4.6441,2.36543 -7.0313,3.4505 -2.3871,1.12848 -4.7797,2.18641 -7.1776,3.17381 -2.398,0.9874 -4.8014,1.90426 -7.2102,2.75058 -2.4088,0.84633 -4.823,1.62212 -7.2426,2.32737 -2.4196,0.70526 -4.8447,1.33998 -7.2752,1.90418 -2.4304,0.56419 -4.8663,1.05786 -7.3076,1.481 -2.4414,0.42313 -4.8881,0.77574 -7.3403,1.05783 -2.4522,0.28209 -4.9099,0.49365 -7.3729,0.63469 -2.4631,0.14104 -4.9316,0.21156 -7.4056,0.21156 -1.2153,0 -2.4414,-0.0136 -3.6785,-0.0407 -1.237,-0.0271 -2.4849,-0.0678 -3.7437,-0.122 -1.2587,-0.0542 -2.5284,-0.122 -3.8089,-0.20334 -1.2805,-0.0814 -2.5718,-0.17625 -3.874,-0.28471 -1.3022,-0.10847 -2.6153,-0.2305 -3.9392,-0.3661 -1.3239,-0.13559 -2.6586,-0.28475 -4.0042,-0.44748 -1.3456,-0.16273 -2.702,-0.33903 -4.0692,-0.5289 -1.3673,-0.18987 -2.7454,-0.39331 -4.1342,-0.61033 -1.3889,-0.17361 -2.7561,-0.3608 -4.1016,-0.56155 -1.3455,-0.20076 -2.6692,-0.41508 -3.9713,-0.64298 -1.302,-0.22789 -2.5824,-0.46935 -3.841,-0.72438 -1.2586,-0.25503 -2.4956,-0.52363 -3.7108,-0.80578 -1.2153,-0.28216 -2.4088,-0.57788 -3.5806,-0.88717 -1.1719,-0.30928 -2.322,-0.63212 -3.4504,-0.96853 -1.1285,-0.3364 -2.2352,-0.68636 -3.3203,-1.04987 -1.085,-0.36352 -2.1484,-0.74059 -3.1901,-1.13122 0.4775,-1.34549 0.9712,-2.76694 1.4812,-4.26433 0.51,-1.4974 1.0363,-3.07075 1.5788,-4.72005 0.5426,-1.64931 1.1015,-3.37457 1.6766,-5.17578 0.5751,-1.80121 1.1665,-3.67838 1.7742,-5.6315 0.6077,-1.95312 1.2316,-3.9822 1.8718,-6.08723 0.6403,-2.10503 1.2968,-4.28602 1.9695,-6.54297 0.6728,-2.25694 1.3619,-4.58984 2.0672,-6.9987 0.7053,-2.40885 1.4269,-4.89367 2.1647,-7.45444 0.5578,-1.93592 1.0892,-3.85786 1.5943,-5.76582 0.505,-1.90796 0.9836,-3.80195 1.4359,-5.68198 0.4522,-1.88002 0.8781,-3.74607 1.2776,-5.59817 0.3995,-1.85209 0.7726,-3.69023 1.1194,-5.51441 0.3468,-1.82418 0.6672,-3.63441 0.9613,-5.43069 0.2941,-1.79628 0.5618,-3.57862 0.8032,-5.34702 0.2415,-1.76839 0.4565,-3.52285 0.6453,-5.26337 0.1887,-1.74053 0.3511,-3.46712 0.4872,-5.17979 h -22.5004 -22.5005 -22.5005 -22.5005 -22.5005 -22.5005 -22.5005 -22.5005 c 0.2831,4.88124 0.9012,9.68422 1.8544,14.40891 0.9532,4.72469 2.2416,9.37111 3.8651,13.93922 1.6235,4.56812 3.5823,9.05794 5.8763,13.46945 2.294,4.41151 4.9232,8.74471 7.8878,12.99959 2.9645,4.25487 6.2644,8.43143 9.8997,12.52964 3.6353,4.09821 7.606,8.11809 11.9121,12.05961 4.3062,3.94153 8.9477,7.8047 13.9249,11.58951 4.9771,3.7848 10.2897,7.49124 15.9379,11.1193 5.9462,3.81946 12.0769,7.4002 18.392,10.74224 6.3151,3.34204 12.8147,6.44537 19.4987,9.30998 6.684,2.86462 13.5525,5.49052 20.6054,7.87771 7.053,2.38719 14.2904,4.53567 21.7123,6.44543 7.4218,1.90976 15.0281,3.58081 22.8189,5.01313 7.7908,1.43233 15.7661,2.62594 23.9258,3.58083 8.1597,0.95488 16.5039,1.67105 25.0326,2.1485 8.5286,0.47745 17.2417,0.71617 26.1393,0.71617 11.5018,0 22.7459,-0.37979 33.7323,-1.13937 10.9864,-0.75958 21.7151,-1.89895 32.1861,-3.4181 10.471,-1.51916 20.6843,-3.41809 30.64,-5.69681 9.9556,-2.27871 19.6535,-4.93721 29.0937,-7.97548 9.4402,-3.03827 18.6227,-6.45632 27.5475,-10.25413 8.9248,-3.79782 17.5919,-7.97541 26.0013,-12.53277 8.4093,-4.55735 16.561,-9.49448 24.4549,-14.81136 7.894,-5.31689 15.5302,-11.01354 22.9087,-17.08995 3.3934,-2.75842 6.6896,-5.56293 9.8885,-8.41349 3.1989,-2.85055 6.3006,-5.74716 9.3052,-8.68977 3.0046,-2.94262 5.912,-5.93125 8.7223,-8.96584 2.8104,-3.0346 5.5237,-6.11517 8.14,-9.24168 2.6164,-3.1265 5.1357,-6.29894 7.5582,-9.51727 2.4225,-3.21834 4.7481,-6.48257 6.9769,-9.79266 2.2287,-3.31009 4.3607,-6.66604 6.396,-10.06781 2.0352,-3.40177 3.9738,-6.84936 5.8157,-10.34273 z" />
  <path
     id="rect1628"
     style="fill:#214478;stroke:none;stroke-width:10;stroke-miterlimit:4;stroke-dasharray:none;stroke-opacity:1;stop-color:#000000"
     d="m 129.58603,349.59095 h 640.82794 l 0,487.29672 H 209.58603 Z" />
  <path
     id="path1186"
     style="font-style:normal;font-variant:normal;font-weight:bold;font-stretch:normal;font-size:1066.67px;line-height:1.25;font-family:Georgia;-inkscape-font-specification:'Georgia Bold';font-variation-settings:normal;letter-spacing:0px;word-spacing:0px;vector-effect:none;fill:#2c5aa0;fill-opacity:1;stroke:none;stroke-width:10;stroke-linecap:butt;stroke-linejoin:miter;stroke-miterlimit:4;stroke-dasharray:none;stroke-dashoffset:0;stroke-opacity:1;stop-color:#000000"
     d="M 742.47266,630.96289 H 719.23047 695.98829 672.7461 649.50391 626.26172 603.01954 579.77735 556.53516 c -0.91332,2.236 -1.85772,4.44236 -2.83324,6.61904 -0.97551,2.17668 -1.98214,4.32367 -3.01993,6.44092 -1.0378,2.11726 -2.10675,4.20479 -3.20691,6.26253 -1.10015,2.05774 -2.23152,4.08571 -3.39413,6.08384 -1.16261,1.99814 -2.35646,3.96645 -3.58161,5.90488 -1.22515,1.93844 -2.48159,3.84699 -3.76937,5.72563 -1.28777,1.87864 -2.60688,3.72735 -3.95737,5.5461 -1.35049,1.81874 -2.73236,3.60752 -4.14565,5.36628 -1.69271,2.12674 -3.42884,4.18837 -5.20837,6.18488 -1.77953,1.99651 -3.60247,3.92791 -5.46882,5.7942 -1.86635,1.86629 -3.7761,3.66747 -5.72926,5.40354 -1.95316,1.73607 -3.94973,3.40704 -5.98969,5.0129 -2.03997,1.60585 -4.12334,3.14661 -6.25011,4.62226 -2.12678,1.47566 -4.29695,2.88621 -6.51052,4.23166 -2.21357,1.34546 -4.47055,2.62581 -6.77091,3.84107 -2.30037,1.21526 -4.64414,2.36543 -7.0313,3.4505 -2.38716,1.12848 -4.77972,2.18641 -7.17769,3.17381 -2.39797,0.9874 -4.80135,1.90426 -7.21014,2.75058 -2.4088,0.84633 -4.823,1.62212 -7.24263,2.32737 -2.41962,0.70526 -4.84467,1.33998 -7.27514,1.90418 -2.43047,0.56419 -4.86637,1.05786 -7.30769,1.481 -2.44133,0.42313 -4.88809,0.77574 -7.34028,1.05783 -2.4522,0.28209 -4.90983,0.49365 -7.3729,0.63469 -2.46308,0.14104 -4.9316,0.21156 -7.40556,0.21156 -1.21528,0 -2.44144,-0.0136 -3.67848,-0.0407 -1.23703,-0.0271 -2.48494,-0.0678 -3.74371,-0.122 -1.25877,-0.0542 -2.52841,-0.122 -3.80891,-0.20334 -1.28049,-0.0814 -2.57184,-0.17625 -3.87405,-0.28471 -1.3022,-0.10847 -2.61525,-0.2305 -3.93915,-0.3661 -1.3239,-0.13559 -2.65864,-0.28475 -4.00422,-0.44748 -1.34558,-0.16273 -2.70199,-0.33903 -4.06923,-0.5289 -1.36724,-0.18987 -2.74532,-0.39331 -4.13421,-0.61033 -1.38889,-0.17361 -2.75607,-0.3608 -4.10154,-0.56155 -1.34547,-0.20076 -2.66923,-0.41508 -3.97128,-0.64298 -1.30205,-0.22789 -2.5824,-0.46935 -3.84104,-0.72438 -1.25864,-0.25503 -2.49558,-0.52363 -3.71081,-0.80578 -1.21524,-0.28216 -2.40877,-0.57788 -3.58061,-0.88717 -1.17183,-0.30928 -2.32197,-0.63212 -3.45041,-0.96853 -1.12844,-0.3364 -2.23519,-0.68636 -3.32024,-1.04987 -1.08505,-0.36352 -2.14841,-0.74059 -3.19008,-1.13122 0.47743,-1.34549 0.97115,-2.76694 1.48115,-4.26433 0.51,-1.4974 1.03628,-3.07075 1.57885,-4.72005 0.54256,-1.64931 1.10141,-3.37457 1.67653,-5.17578 0.57512,-1.80121 1.16653,-3.67838 1.7742,-5.6315 0.60768,-1.95312 1.23164,-3.9822 1.87187,-6.08723 0.64022,-2.10503 1.29673,-4.28602 1.9695,-6.54297 0.67277,-2.25694 1.36182,-4.58984 2.06713,-6.9987 0.70532,-2.40885 1.4269,-4.89367 2.16475,-7.45444 0.55781,-1.93592 1.08922,-3.85786 1.59423,-5.76582 0.50502,-1.90796 0.98365,-3.80195 1.43591,-5.68198 0.45225,-1.88002 0.87812,-3.74607 1.27763,-5.59817 0.39951,-1.85209 0.77265,-3.69023 1.11943,-5.51441 0.34679,-1.82418 0.66722,-3.63441 0.9613,-5.43069 0.29408,-1.79628 0.56182,-3.57862 0.80322,-5.34702 0.24141,-1.76839 0.45648,-3.52285 0.64522,-5.26337 0.18875,-1.74053 0.35117,-3.46712 0.48728,-5.17979 h -22.50049 -22.50049 -22.50048 -22.50049 -22.50049 -22.50049 -22.50048 -22.50049 c 0.28304,4.88124 0.90114,9.68422 1.85436,14.40891 0.95322,4.72469 2.24157,9.37111 3.86511,13.93922 1.62353,4.56812 3.58226,9.05794 5.87625,13.46945 2.29399,4.41151 4.92324,8.74471 7.88781,12.99959 2.96457,4.25487 6.26446,8.43143 9.89975,12.52964 3.63528,4.09821 7.60596,8.11809 11.91209,12.05961 4.30614,3.94153 8.94773,7.8047 13.92484,11.58951 4.97712,3.7848 10.28976,7.49124 15.93799,11.1193 5.9462,3.81946 12.07685,7.4002 18.39196,10.74224 6.31511,3.34204 12.81468,6.44537 19.4987,9.30998 6.68402,2.86462 13.5525,5.49052 20.60544,7.87771 7.05294,2.38719 14.29034,4.53567 21.71221,6.44543 7.42186,1.90976 15.02819,3.58081 22.81898,5.01313 7.79079,1.43233 15.76604,2.62594 23.92576,3.58083 8.15972,0.95488 16.50391,1.67105 25.03257,2.1485 8.52866,0.47745 17.24178,0.71617 26.13938,0.71617 11.50177,0 22.74586,-0.37979 33.73226,-1.13937 10.98639,-0.75958 21.7151,-1.89895 32.18611,-3.4181 10.47101,-1.51916 20.68433,-3.41809 30.63994,-5.69681 9.95562,-2.27871 19.65354,-4.93721 29.09375,-7.97548 9.44021,-3.03827 18.62272,-6.45632 27.54751,-10.25413 8.9248,-3.79782 17.59189,-7.97541 26.00126,-12.53277 8.40937,-4.55735 16.56103,-9.49448 24.45497,-14.81136 7.89394,-5.31689 15.53015,-11.01354 22.90865,-17.08995 3.39345,-2.75842 6.6896,-5.56293 9.88853,-8.41349 3.19892,-2.85055 6.30062,-5.74716 9.30518,-8.68977 3.00456,-2.94262 5.91198,-5.93125 8.72234,-8.96584 2.81036,-3.0346 5.52367,-6.11517 8.14,-9.24168 2.61634,-3.1265 5.1357,-6.29894 7.55817,-9.51727 2.42247,-3.21834 4.74806,-6.48257 6.97684,-9.79266 2.22878,-3.31009 4.36075,-6.66604 6.396,-10.06781 2.03526,-3.40177 3.97379,-6.84936 5.81568,-10.34273 z" />
  <path
     id="path1081"
     style="font-style:normal;font-variant:normal;font-weight:bold;font-stretch:normal;font-size:1066.67px;line-height:1.25;font-family:Georgia;-inkscape-font-specification:'Georgia Bold';letter-spacing:0px;word-spacing:0px;fill:#3771c8"
     d="m 304.66797,25.783203 -50.52149,383.335937 40.625,13.54102 c 17.36116,-21.18062 36.9804,-38.19375 58.85547,-51.04102 21.87507,-13.19449 48.95823,-19.79297 81.25,-19.79297 41.6668,0 75.52075,15.79916 101.5625,47.39649 26.38898,31.25009 39.58399,71.354 39.58399,120.3125 0,33.68066 -3.99433,63.71649 -11.98047,90.10546 -2.20735,7.38984 -4.71688,14.48949 -7.50781,21.32227 h 185.9375 c 17.4924,-33.17647 26.25976,-70.48492 26.25976,-111.94727 0,-43.40291 -8.85411,-79.6887 -26.5625,-108.85546 -17.70839,-29.51398 -39.58325,-52.95134 -65.625,-70.3125 -28.47231,-18.75006 -57.81306,-31.42424 -88.02148,-38.02149 -29.86121,-6.94446 -60.24361,-10.41601 -91.14649,-10.41601 -39.93068,0 -74.65203,5.38255 -104.16601,16.14648 -29.51399,10.76392 -53.64643,22.04792 -72.39649,33.85352 l 21.35352,-171.875 H 744.77344 V 25.783203 Z m -14.0625,510.939457 c -26.38897,0 -47.56874,8.50754 -63.54102,25.52148 -15.62505,17.01395 -23.4375,37.84715 -23.4375,62.5 0,2.08797 0.0759,4.15868 0.19532,6.21875 h 180.0039 c 0.35146,-4.42235 0.5293,-8.75394 0.5293,-12.99023 0,-24.65286 -8.85411,-44.27014 -26.5625,-58.85352 -17.36117,-14.9306 -39.75686,-22.39648 -67.1875,-22.39648 z" />
  <path
     id="path1084"
     style="font-style:normal;font-variant:normal;font-weight:bold;font-stretch:normal;font-size:1066.67px;line-height:1.25;font-family:Georgia;-inkscape-font-specification:'Georgia Bold';letter-spacing:0px;word-spacing:0px;fill:#3771c8"
     d="m 1256.5234,25.783203 -50.5214,383.335937 40.625,13.54102 c 17.3611,-21.18062 36.9784,-38.19375 58.8535,-51.04102 21.875,-13.19449 48.9601,-19.79297 81.2519,-19.79297 41.6668,0 75.5208,15.79916 101.5625,47.39649 26.389,31.25009 39.584,71.354 39.584,120.3125 0,33.68066 -3.9943,63.71649 -11.9805,90.10546 -2.2073,7.38984 -4.7168,14.48949 -7.5078,21.32227 h 185.9375 c 17.4923,-33.17639 26.2578,-70.48504 26.2578,-111.94727 0,-43.40291 -8.8541,-79.6887 -26.5625,-108.85546 -17.7083,-29.51398 -39.5832,-52.95134 -65.625,-70.3125 -28.4722,-18.75006 -57.811,-31.42424 -88.0195,-38.02149 -29.8612,-6.94446 -60.2436,-10.41601 -91.1465,-10.41601 -39.9306,0 -74.6539,5.38255 -104.1679,16.14648 -29.514,10.76392 -53.6465,22.04792 -72.3965,33.85352 l 21.3554,-171.875 h 402.6055 V 25.783203 Z m -14.0625,510.939457 c -26.3889,0 -47.5706,8.50754 -63.5429,25.52148 -15.625,17.01395 -23.4375,37.84715 -23.4375,62.5 0,2.08797 0.078,4.15868 0.1972,6.21875 h 180.0039 c 0.3515,-4.42235 0.5293,-8.75394 0.5293,-12.99023 0,-24.65286 -8.8541,-44.27014 -26.5625,-58.85352 -17.3611,-14.9306 -39.7568,-22.39648 -67.1875,-22.39648 z" />
  <path
     id="path1213"
     style="font-style:normal;font-variant:normal;font-weight:bold;font-stretch:normal;font-size:1066.67px;line-height:1.25;font-family:Georgia;-inkscape-font-specification:'Georgia Bold';font-variation-settings:normal;letter-spacing:0px;word-spacing:0px;vector-effect:none;fill:#2c5aa0;fill-opacity:1;stroke:none;stroke-width:10;stroke-linecap:butt;stroke-linejoin:miter;stroke-miterlimit:4;stroke-dasharray:none;stroke-dashoffset:0;stroke-opacity:1;stop-color:#000000;filter:url(#filter1225)"
     d="M 742.47266,630.96289 H 719.23047 695.98829 672.7461 649.50391 626.26172 603.01954 579.77735 556.53516 c -0.91332,2.236 -1.85772,4.44236 -2.83324,6.61904 -0.97551,2.17668 -1.98214,4.32367 -3.01993,6.44092 -1.0378,2.11726 -2.10675,4.20479 -3.20691,6.26253 -1.10015,2.05774 -2.23152,4.08571 -3.39413,6.08384 -1.16261,1.99814 -2.35646,3.96645 -3.58161,5.90488 -1.22515,1.93844 -2.48159,3.84699 -3.76937,5.72563 -1.28777,1.87864 -2.60688,3.72735 -3.95737,5.5461 -1.35049,1.81874 -2.73236,3.60752 -4.14565,5.36628 -1.69271,2.12674 -3.42884,4.18837 -5.20837,6.18488 -1.77953,1.99651 -3.60247,3.92791 -5.46882,5.7942 -1.86635,1.86629 -3.7761,3.66747 -5.72926,5.40354 -1.95316,1.73607 -3.94973,3.40704 -5.98969,5.0129 -2.03997,1.60585 -4.12334,3.14661 -6.25011,4.62226 -2.12678,1.47566 -4.29695,2.88621 -6.51052,4.23166 -2.21357,1.34546 -4.47055,2.62581 -6.77091,3.84107 -2.30037,1.21526 -4.64414,2.36543 -7.0313,3.4505 -2.38716,1.12848 -4.77972,2.18641 -7.17769,3.17381 -2.39797,0.9874 -4.80135,1.90426 -7.21014,2.75058 -2.4088,0.84633 -4.823,1.62212 -7.24263,2.32737 -2.41962,0.70526 -4.84467,1.33998 -7.27514,1.90418 -2.43047,0.56419 -4.86637,1.05786 -7.30769,1.481 -2.44133,0.42313 -4.88809,0.77574 -7.34028,1.05783 -2.4522,0.28209 -4.90983,0.49365 -7.3729,0.63469 -2.46308,0.14104 -4.9316,0.21156 -7.40556,0.21156 -1.21528,0 -2.44144,-0.0136 -3.67848,-0.0407 -1.23703,-0.0271 -2.48494,-0.0678 -3.74371,-0.122 -1.25877,-0.0542 -2.52841,-0.122 -3.80891,-0.20334 -1.28049,-0.0814 -2.57184,-0.17625 -3.87405,-0.28471 -1.3022,-0.10847 -2.61525,-0.2305 -3.93915,-0.3661 -1.3239,-0.13559 -2.65864,-0.28475 -4.00422,-0.44748 -1.34558,-0.16273 -2.70199,-0.33903 -4.06923,-0.5289 -1.36724,-0.18987 -2.74532,-0.39331 -4.13421,-0.61033 -1.38889,-0.17361 -2.75607,-0.3608 -4.10154,-0.56155 -1.34547,-0.20076 -2.66923,-0.41508 -3.97128,-0.64298 -1.30205,-0.22789 -2.5824,-0.46935 -3.84104,-0.72438 -1.25864,-0.25503 -2.49558,-0.52363 -3.71081,-0.80578 -1.21524,-0.28216 -2.40877,-0.57788 -3.58061,-0.88717 -1.17183,-0.30928 -2.32197,-0.63212 -3.45041,-0.96853 -1.12844,-0.3364 -2.23519,-0.68636 -3.32024,-1.04987 -1.08505,-0.36352 -2.14841,-0.74059 -3.19008,-1.13122 0.47743,-1.34549 0.97115,-2.76694 1.48115,-4.26433 0.51,-1.4974 1.03628,-3.07075 1.57885,-4.72005 0.54256,-1.64931 1.10141,-3.37457 1.67653,-5.17578 0.57512,-1.80121 1.16653,-3.67838 1.7742,-5.6315 0.60768,-1.95312 1.23164,-3.9822 1.87187,-6.08723 0.64022,-2.10503 1.29673,-4.28602 1.9695,-6.54297 0.67277,-2.25694 1.36182,-4.58984 2.06713,-6.9987 0.70532,-2.40885 1.4269,-4.89367 2.16475,-7.45444 0.55781,-1.93592 1.08922,-3.85786 1.59423,-5.76582 0.50502,-1.90796 0.98365,-3.80195 1.43591,-5.68198 0.45225,-1.88002 0.87812,-3.74607 1.27763,-5.59817 0.39951,-1.85209 0.77265,-3.69023 1.11943,-5.51441 0.34679,-1.82418 0.66722,-3.63441 0.9613,-5.43069 0.29408,-1.79628 0.56182,-3.57862 0.80322,-5.34702 0.24141,-1.76839 0.45648,-3.52285 0.64522,-5.26337 0.18875,-1.74053 0.35117,-3.46712 0.48728,-5.17979 h -22.50049 -22.50049 -22.50048 -22.50049 -22.50049 -22.50049 -22.50048 -22.50049 c 0.28304,4.88124 0.90114,9.68422 1.85436,14.40891 0.95322,4.72469 2.24157,9.37111 3.86511,13.93922 1.62353,4.56812 3.58226,9.05794 5.87625,13.46945 2.29399,4.41151 4.92324,8.74471 7.88781,12.99959 2.96457,4.25487 6.26446,8.43143 9.89975,12.52964 3.63528,4.09821 7.60596,8.11809 11.91209,12.05961 4.30614,3.94153 8.94773,7.8047 13.92484,11.58951 4.97712,3.7848 10.28976,7.49124 15.93799,11.1193 5.9462,3.81946 12.07685,7.4002 18.39196,10.74224 6.31511,3.34204 12.81468,6.44537 19.4987,9.30998 6.68402,2.86462 13.5525,5.49052 20.60544,7.87771 7.05294,2.38719 14.29034,4.53567 21.71221,6.44543 7.42186,1.90976 15.02819,3.58081 22.81898,5.01313 7.79079,1.43233 15.76604,2.62594 23.92576,3.58083 8.15972,0.95488 16.50391,1.67105 25.03257,2.1485 8.52866,0.47745 17.24178,0.71617 26.13938,0.71617 11.50177,0 22.74586,-0.37979 33.73226,-1.13937 10.98639,-0.75958 21.7151,-1.89895 32.18611,-3.4181 10.47101,-1.51916 20.68433,-3.41809 30.63994,-5.69681 9.95562,-2.27871 19.65354,-4.93721 29.09375,-7.97548 9.44021,-3.03827 18.62272,-6.45632 27.54751,-10.25413 8.9248,-3.79782 17.59189,-7.97541 26.00126,-12.53277 8.40937,-4.55735 16.56103,-9.49448 24.45497,-14.81136 7.89394,-5.31689 15.53015,-11.01354 22.90865,-17.08995 3.39345,-2.75842 6.6896,-5.56293 9.88853,-8.41349 3.19892,-2.85055 6.30062,-5.74716 9.30518,-8.68977 3.00456,-2.94262 5.91198,-5.93125 8.72234,-8.96584 2.81036,-3.0346 5.52367,-6.11517 8.14,-9.24168 2.61634,-3.1265 5.1357,-6.29894 7.55817,-9.51727 2.42247,-3.21834 4.74806,-6.48257 6.97684,-9.79266 2.22878,-3.31009 4.36075,-6.66604 6.396,-10.06781 2.03526,-3.40177 3.97379,-6.84936 5.81568,-10.34273 z" />
  <path
     id="path1215"
     style="font-style:normal;font-variant:normal;font-weight:bold;font-stretch:normal;font-size:1066.67px;line-height:1.25;font-family:Georgia;-inkscape-font-specification:'Georgia Bold';font-variation-settings:normal;letter-spacing:0px;word-spacing:0px;vector-effect:none;fill:#2c5aa0;fill-opacity:1;stroke:none;stroke-width:10;stroke-linecap:butt;stroke-linejoin:miter;stroke-miterlimit:4;stroke-dasharray:none;stroke-dashoffset:0;stroke-opacity:1;stop-color:#000000;filter:url(#filter1229)"
     d="m 1694.3281,630.96289 h -23.2422 -23.2422 -23.2422 -23.2421 -23.2422 -23.2422 -23.2422 -23.2422 c -0.9133,2.236 -1.8577,4.44236 -2.8332,6.61904 -0.9755,2.17668 -1.9822,4.32367 -3.02,6.44092 -1.0378,2.11726 -2.1067,4.20479 -3.2069,6.26253 -1.1001,2.05774 -2.2315,4.08571 -3.3941,6.08384 -1.1626,1.99814 -2.3565,3.96645 -3.5816,5.90488 -1.2252,1.93844 -2.4816,3.84699 -3.7694,5.72563 -1.2878,1.87864 -2.6069,3.72735 -3.9574,5.5461 -1.3505,1.81874 -2.7323,3.60752 -4.1456,5.36628 -1.6927,2.12674 -3.4289,4.18837 -5.2084,6.18488 -1.7795,1.99651 -3.6024,3.92791 -5.4688,5.7942 -1.8663,1.86629 -3.7761,3.66747 -5.7293,5.40354 -1.9531,1.73607 -3.9497,3.40704 -5.9897,5.0129 -2.0399,1.60585 -4.1233,3.14661 -6.2501,4.62226 -2.1267,1.47566 -4.2969,2.88621 -6.5105,4.23166 -2.2135,1.34546 -4.4705,2.62581 -6.7709,3.84107 -2.3004,1.21526 -4.6441,2.36543 -7.0313,3.4505 -2.3871,1.12848 -4.7797,2.18641 -7.1777,3.17381 -2.3979,0.9874 -4.8013,1.90426 -7.2101,2.75058 -2.4088,0.84633 -4.823,1.62212 -7.2426,2.32737 -2.4197,0.70526 -4.8447,1.33998 -7.2752,1.90418 -2.4305,0.56419 -4.8664,1.05786 -7.3077,1.481 -2.4413,0.42313 -4.8881,0.77574 -7.3403,1.05783 -2.4522,0.28209 -4.9098,0.49365 -7.3729,0.63469 -2.463,0.14104 -4.9316,0.21156 -7.4055,0.21156 -1.2153,0 -2.4415,-0.0136 -3.6785,-0.0407 -1.237,-0.0271 -2.4849,-0.0678 -3.7437,-0.122 -1.2588,-0.0542 -2.5284,-0.122 -3.8089,-0.20334 -1.2805,-0.0814 -2.5719,-0.17625 -3.8741,-0.28471 -1.3022,-0.10847 -2.6152,-0.2305 -3.9391,-0.3661 -1.3239,-0.13559 -2.6587,-0.28475 -4.0042,-0.44748 -1.3456,-0.16273 -2.702,-0.33903 -4.0693,-0.5289 -1.3672,-0.18987 -2.7453,-0.39331 -4.1342,-0.61033 -1.3889,-0.17361 -2.7561,-0.3608 -4.1015,-0.56155 -1.3455,-0.20076 -2.6693,-0.41508 -3.9713,-0.64298 -1.302,-0.22789 -2.5824,-0.46935 -3.841,-0.72438 -1.2587,-0.25503 -2.4956,-0.52363 -3.7108,-0.80578 -1.2153,-0.28216 -2.4088,-0.57788 -3.5807,-0.88717 -1.1718,-0.30928 -2.3219,-0.63212 -3.4504,-0.96853 -1.1284,-0.3364 -2.2352,-0.68636 -3.3202,-1.04987 -1.0851,-0.36352 -2.1484,-0.74059 -3.1901,-1.13122 0.4774,-1.34549 0.9712,-2.76694 1.4812,-4.26433 0.51,-1.4974 1.0362,-3.07075 1.5788,-4.72005 0.5426,-1.64931 1.1014,-3.37457 1.6765,-5.17578 0.5752,-1.80121 1.1666,-3.67838 1.7742,-5.6315 0.6077,-1.95312 1.2317,-3.9822 1.8719,-6.08723 0.6402,-2.10503 1.2967,-4.28602 1.9695,-6.54297 0.6728,-2.25694 1.3618,-4.58984 2.0671,-6.9987 0.7054,-2.40885 1.4269,-4.89367 2.1648,-7.45444 0.5578,-1.93592 1.0892,-3.85786 1.5942,-5.76582 0.505,-1.90796 0.9837,-3.80195 1.4359,-5.68198 0.4523,-1.88002 0.8782,-3.74607 1.2777,-5.59817 0.3995,-1.85209 0.7726,-3.69023 1.1194,-5.51441 0.3468,-1.82418 0.6672,-3.63441 0.9613,-5.43069 0.2941,-1.79628 0.5618,-3.57862 0.8032,-5.34702 0.2414,-1.76839 0.4565,-3.52285 0.6452,-5.26337 0.1888,-1.74053 0.3512,-3.46712 0.4873,-5.17979 h -22.5005 -22.5005 -22.5004 -22.5005 -22.5005 -22.5005 -22.5005 -22.5005 c 0.2831,4.88124 0.9011,9.68422 1.8544,14.40891 0.9532,4.72469 2.2415,9.37111 3.8651,13.93922 1.6235,4.56812 3.5822,9.05794 5.8762,13.46945 2.294,4.41151 4.9233,8.74471 7.8878,12.99959 2.9646,4.25487 6.2645,8.43143 9.8998,12.52964 3.6353,4.09821 7.606,8.11809 11.9121,12.05961 4.3061,3.94153 8.9477,7.8047 13.9248,11.58951 4.9771,3.7848 10.2898,7.49124 15.938,11.1193 5.9462,3.81946 12.0769,7.4002 18.392,10.74224 6.3151,3.34204 12.8146,6.44537 19.4987,9.30998 6.684,2.86462 13.5525,5.49052 20.6054,7.87771 7.0529,2.38719 14.2903,4.53567 21.7122,6.44543 7.4219,1.90976 15.0282,3.58081 22.819,5.01313 7.7908,1.43233 15.766,2.62594 23.9258,3.58083 8.1597,0.95488 16.5039,1.67105 25.0325,2.1485 8.5287,0.47745 17.2418,0.71617 26.1394,0.71617 11.5018,0 22.7459,-0.37979 33.7323,-1.13937 10.9864,-0.75958 21.7151,-1.89895 32.1861,-3.4181 10.471,-1.51916 20.6843,-3.41809 30.6399,-5.69681 9.9556,-2.27871 19.6536,-4.93721 29.0938,-7.97548 9.4402,-3.03827 18.6227,-6.45632 27.5475,-10.25413 8.9248,-3.79782 17.5919,-7.97541 26.0012,-12.53277 8.4094,-4.55735 16.5611,-9.49448 24.455,-14.81136 7.894,-5.31689 15.5302,-11.01354 22.9087,-17.08995 3.3934,-2.75842 6.6896,-5.56293 9.8885,-8.41349 3.1989,-2.85055 6.3006,-5.74716 9.3052,-8.68977 3.0045,-2.94262 5.912,-5.93125 8.7223,-8.96584 2.8104,-3.0346 5.5237,-6.11517 8.14,-9.24168 2.6163,-3.1265 5.1357,-6.29894 7.5582,-9.51727 2.4225,-3.21834 4.748,-6.48257 6.9768,-9.79266 2.2288,-3.31009 4.3608,-6.66604 6.396,-10.06781 2.0353,-3.40177 3.9738,-6.84936 5.8157,-10.34273 z" />
</svg>
